<svg width="742" height="289" viewBox="0 0 742 289" fill="none" xmlns="http://www.w3.org/2000/svg">
<g clip-path="url(#clip0_1040_1503)">
<g clip-path="url(#clip1_1040_1503)">
<g clip-path="url(#clip2_1040_1503)">
<path d="M113.19 79.0816C111.259 80.1189 109.465 81.1943 107.571 82.0935C106.798 82.443 106.126 82.9688 105.415 83.306C104.942 83.5308 104.743 84.1586 104.681 84.8245C104.619 86.1439 104.221 87.3994 103.947 88.6302C103.873 88.9065 104.047 89.1332 103.973 89.4095C103.537 90.4764 103.824 91.5957 103.713 92.6636C103.614 93.7944 103.452 94.9376 103.54 96.0312C103.578 96.8733 103.416 97.6897 103.516 98.5195C103.579 99.1606 103.816 99.3749 104.401 99.0625C105.286 98.6253 106.32 98.2891 107.03 97.6251C107.578 97.1241 108.201 96.6735 108.837 96.2858C109.696 95.7229 110.556 95.1599 111.353 94.6094C112.263 93.9711 113.247 93.3834 114.144 92.6823C114.767 92.2318 115.452 91.7688 116.162 91.4317C116.636 91.2069 116.935 90.7553 117.408 90.5305C117.994 90.2181 118.442 90.5211 118.866 90.6983C119.016 90.7993 119.24 90.9508 119.377 90.9889C120.1 91.0413 120.649 91.5205 121.284 91.7863C121.708 91.9635 122.194 92.1284 122.618 92.3056C123.528 92.6476 124.525 93.1031 125.435 93.4451C126.071 93.7109 126.657 94.052 127.392 94.1673C128.053 94.2321 128.714 94.6237 129.237 94.9772C129.973 95.4192 130.745 95.3964 131.243 94.6439C131.655 94.1047 131.991 93.515 132.414 93.0387C133 92.3996 133.523 91.7728 134.108 91.1336C134.631 90.5068 135.129 89.7542 135.665 89.1903C136.201 88.6264 136.649 87.9491 137.122 87.3975C137.546 86.9212 137.82 86.344 138.33 85.981C139.115 85.3676 139.451 84.4512 140.099 83.7996C140.585 83.3109 140.921 82.7213 141.27 82.1945C141.668 81.5924 142.129 80.978 142.602 80.4265C143.026 79.9502 143.3 79.3729 143.723 78.8966C144.296 78.1946 144.882 77.5554 145.38 76.8028C146.027 75.8245 146.85 75.0729 147.435 74.107C147.821 73.4421 148.506 72.9792 148.892 72.3142C149.415 71.3607 150.175 70.6215 150.76 69.6556C151.445 68.5391 152.217 67.536 152.977 66.4701C153.126 66.2443 153.201 65.9681 153.35 65.7423C154.11 64.6763 155.194 63.9381 156.128 63.0989C157.399 61.9968 158.67 60.8947 159.953 59.8554C160.563 59.342 161.236 58.8162 161.859 58.3656C162.307 58.0151 162.793 57.5264 163.242 57.1759C164.089 56.55 164.699 55.7098 165.546 55.084C165.995 54.7335 166.294 54.2819 166.592 53.8304C167.041 53.1531 166.754 52.6873 165.931 52.4586C165.32 52.3185 164.697 52.4423 164.112 52.428C163.077 52.4375 162.093 52.6984 161.108 52.6326C160.323 52.5926 159.551 52.9421 158.728 52.7135C158.117 52.5734 157.332 52.8601 156.622 52.8705C155.65 52.8676 154.728 53.1162 153.83 53.1638C151.911 53.2837 150.017 53.8561 148.085 53.9132C147.824 53.8998 147.6 54.0751 147.338 54.0617C146.204 54.2217 145.045 54.2559 143.986 54.4664C142.49 54.7636 141.02 55.1864 139.499 55.3578C139.126 55.4321 138.864 55.7455 138.403 55.7064C138.004 55.655 137.531 55.8797 137.157 55.954C135.861 56.2769 134.59 56.3988 133.294 56.7216C132.608 56.8578 131.886 57.1321 131.088 57.0292C130.639 57.053 130.004 57.1139 129.618 57.4521C129.393 57.6274 129.156 57.413 128.845 57.4749C128.035 57.6359 127.188 57.9349 126.353 57.9701C125.007 58.0415 123.898 58.654 122.639 58.8387C122.265 58.913 121.917 59.113 121.468 59.1368C119.823 59.333 118.191 59.9187 116.571 60.2406C115.823 60.3892 115.025 60.613 114.278 60.7616C114.091 60.7987 113.854 60.9111 113.717 60.873C113.019 60.6196 112.795 61.1216 112.558 61.5608C111.948 62.7277 111.4 63.8822 110.703 64.9358C110.056 65.9141 109.533 66.8677 109.022 67.8841C108.686 68.4738 108.1 68.7862 107.976 69.4645C107.839 70.0798 107.191 70.4047 106.917 70.9819C106.681 71.4211 106.32 71.885 106.22 72.3623C106.108 72.7766 105.734 72.8509 105.535 73.1519C105.348 73.5158 105.224 73.8674 105.037 74.2313C104.713 74.8838 104.228 75.3725 104.041 76.0631C103.892 76.6156 103.929 76.8042 104.49 77.0196C105.537 77.3997 106.659 77.5036 107.681 77.758C109.114 78.1268 110.56 78.2317 111.956 78.7386C112.367 78.8529 112.766 78.9044 113.19 79.0816ZM165.471 53.7265C164.2 54.8286 162.992 55.9184 161.833 56.9329C161.011 57.6844 159.939 58.1588 159.23 59.1495C159.18 59.2247 159.055 59.2495 158.931 59.2743C158.258 59.8001 157.573 60.263 156.912 60.8517C156.638 61.1022 156.364 61.3528 156.103 61.6662C155.742 62.13 155.093 62.1281 154.72 62.5291C154.246 63.0807 153.711 63.6446 153.15 64.0828C151.207 65.7107 149.189 67.2882 147.171 68.8656C146.834 69.1285 146.348 69.2904 146.136 69.5286C145.564 70.2306 144.779 70.5173 144.181 71.0936C143.134 72.0205 141.764 72.6196 140.73 73.6093C140.568 73.7722 140.406 73.9351 140.219 73.9723C139.72 74.0713 139.334 74.4095 139.01 74.7353C138.188 75.4868 137.142 75.7602 136.394 76.5623C135.746 77.2138 134.799 77.3366 134.077 77.9377C133.417 78.5264 132.632 78.8131 131.959 79.3389C131.398 79.7771 130.75 80.1019 130.177 80.4772C129.268 81.1154 128.358 81.7536 127.436 82.329C127.15 82.5166 126.776 82.5909 126.564 82.829C125.468 83.8312 124.172 84.4808 122.989 85.3695C121.967 86.0953 120.871 86.7707 119.774 87.4461C119.027 87.9214 118.292 88.4596 117.544 88.9349C116.46 89.6731 115.402 90.5371 114.318 91.2753C113.346 91.9259 112.387 92.6394 111.427 93.3528C110.468 94.0663 109.347 94.6159 108.387 95.3294C107.304 96.0676 106.145 96.7553 105.061 97.4936C104.949 97.5812 104.787 97.7441 104.637 97.6431C104.488 97.5421 104.513 97.3411 104.537 97.1401C104.562 96.6124 104.774 96.0475 104.686 95.6073C104.561 94.9786 104.76 94.3508 104.71 93.7726C104.66 93.1943 104.859 92.5665 104.884 92.0388C104.958 91.4358 105.108 90.8833 105.107 90.2297C105.082 89.4505 105.368 88.6093 105.405 87.8177C105.405 86.8374 105.678 85.9334 105.753 85.0037C105.79 84.5388 105.977 84.1749 106.388 83.9625C106.961 83.5872 107.634 83.3881 108.107 82.8365C108.381 82.586 108.892 82.5499 109.166 82.2993C109.988 81.5477 110.948 81.161 111.882 80.6486C112.754 80.1485 113.651 79.7742 114.536 79.337C115.421 78.8997 116.268 78.2739 117.24 77.9501C118.199 77.5634 118.972 76.887 119.919 76.4375C121.339 75.7631 122.635 74.7867 123.968 73.999C124.84 73.4989 125.774 72.9864 126.721 72.5368C127.083 72.3997 127.195 71.9853 127.568 71.911C128.378 71.75 128.964 71.1109 129.836 70.9375C130.272 70.8509 130.696 70.3746 131.107 70.1622C131.692 69.8497 132.291 69.6002 132.876 69.2878C133.998 68.7381 135.106 68.1257 136.228 67.5761C136.988 67.1636 137.735 66.6883 138.508 66.3387C139.106 66.0892 139.629 65.7891 140.215 65.4767C140.8 65.1643 141.361 64.7261 142.009 64.4013C142.943 63.8888 143.828 63.4516 144.775 63.002C145.535 62.5896 146.37 62.2276 147.067 61.8276C147.765 61.4275 148.575 61.2666 149.186 60.7531C149.684 60.3273 150.369 60.1911 150.955 59.8787C151.491 59.6415 151.939 59.291 152.55 59.1043C153.223 58.9053 153.845 58.4547 154.493 58.1299C155.664 57.505 156.923 56.9935 158.107 56.4316C159.402 55.7819 160.885 55.4219 162.194 54.8352C163.228 54.499 164.324 54.1504 165.471 53.7265ZM105.312 75.9412C105.599 75.4268 105.76 74.9372 106.072 74.5485C106.831 73.4826 107.442 72.3156 108.126 71.1992C108.612 70.3838 109.16 69.556 109.646 68.7406C110.081 68.0004 110.38 67.2221 110.766 66.5572C111.538 65.2274 112.248 63.9099 113.02 62.5801C113.456 61.8399 113.954 61.7409 114.64 61.6047C115.325 61.4685 115.998 61.2694 116.696 61.1961C117.443 61.0476 118.179 60.8361 118.914 60.6247C119.587 60.4256 120.297 60.4152 120.97 60.2161C121.643 60.0171 122.378 59.8056 123.063 59.6694C125.182 59.2485 127.288 58.7647 129.419 58.4066C130.553 58.2466 131.724 57.9485 132.846 57.7257C133.905 57.5152 134.902 57.3171 135.961 57.1066C137.456 56.8095 138.939 56.7763 140.397 56.2905C140.945 56.1162 141.556 56.2563 142.154 56.0067C142.516 55.8696 142.902 55.8581 143.288 55.8467C143.924 55.7858 144.522 55.5363 145.083 55.4248C145.893 55.2639 146.728 55.2287 147.475 55.0801C148.659 54.8449 149.868 54.7354 151.002 54.5754C151.75 54.4269 152.46 54.4164 153.158 54.3431C153.719 54.2317 154.279 54.1203 154.865 54.1346C155.638 54.1118 156.398 54.0261 157.158 53.9404C157.794 53.8794 158.492 53.8061 159.115 53.6823C160.249 53.5223 161.345 53.5005 162.467 53.2776C162.965 53.1786 163.414 53.1548 163.925 53.1186C162.878 53.7187 161.819 54.256 160.735 54.6674C159.614 55.217 158.505 55.5028 157.421 55.9142C156.997 56.0638 156.574 56.2133 156.162 56.4257C154.792 57.0249 153.434 57.6869 151.963 58.1097C150.02 58.7574 148.101 59.5308 146.232 60.229C144.786 60.7776 143.316 61.2005 141.958 61.8625C140.886 62.3369 139.79 62.6855 138.78 63.1474C137.048 63.8837 135.292 64.4942 133.547 65.1677C131.815 65.9039 130.121 66.5021 128.376 67.1755C127.242 67.6622 126.096 68.0861 124.95 68.5099C124.165 68.7966 123.479 69.2596 122.732 69.4081C121.61 69.631 120.564 70.2311 119.542 70.6302C117.984 71.2665 116.427 71.9027 114.882 72.6019C112.988 73.501 110.894 74.0477 108.913 74.8335C108.315 75.0831 107.592 75.0307 107.019 75.406C106.446 75.7813 105.96 75.9432 105.312 75.9412ZM151.444 66.9053C151.071 67.9599 150.386 68.7496 149.838 69.5774C149.24 70.4804 148.518 71.4083 147.845 72.2608C147.123 73.1887 146.538 74.1546 145.728 74.969C145.08 75.6206 144.532 76.4484 143.972 77.2133C143.424 78.0411 142.651 78.7175 142.104 79.5453C141.805 79.9968 141.431 80.3978 141.07 80.8617C140.435 81.5762 139.787 82.2277 139.363 83.0308C139.077 83.5452 138.641 83.9586 138.267 84.3596C137.582 85.1493 137.196 86.141 136.275 86.7163C136.275 86.7163 136.287 86.7792 136.237 86.8545C135.789 87.5318 135.203 88.1709 134.743 88.7854C134.282 89.3998 133.671 89.9132 133.285 90.5781C132.862 91.3812 132.127 91.9194 131.641 92.7348C131.355 93.2492 130.72 93.6369 130.433 94.1513C130.147 94.6657 129.91 94.4513 129.623 94.3122C128.763 93.8949 127.878 93.3519 127.03 92.9975C125.983 92.6173 125.073 91.9485 123.989 91.7065C122.555 91.3377 121.284 90.4793 119.825 89.9848C119.551 89.9086 119.152 89.8571 118.94 89.4418C119.327 89.4304 119.551 89.2551 119.85 89.1303C120.373 88.8303 120.872 88.4045 121.47 88.1549C122.005 87.9177 122.604 87.6682 123.102 87.2424C123.637 86.6785 124.335 86.2784 124.946 85.765C125.444 85.3392 126.104 85.0772 126.677 84.7019C126.964 84.5143 127.151 84.1504 127.45 84.0256C128.571 83.476 129.543 82.8254 130.564 82.0996C131.474 81.4613 132.371 80.7603 133.293 80.1849C134.04 79.7096 134.763 79.1085 135.498 78.5703C136.407 77.9321 137.242 77.2434 138.151 76.6052C139.061 75.967 140.07 75.505 140.967 74.804C141.702 74.2658 142.512 73.7781 143.234 73.177C143.683 72.8265 144.144 72.5388 144.53 72.2006C144.804 71.9501 145.003 71.6491 145.352 71.449C145.863 71.0861 146.374 70.7232 146.885 70.3603C147.283 70.085 147.669 69.7468 148.068 69.4715C148.641 69.0962 149.127 68.6076 149.7 68.2323C150.273 67.857 150.821 67.3559 151.444 66.9053ZM106.957 76.3986C106.945 76.3357 106.932 76.2729 106.92 76.21C107.593 76.0109 108.216 75.5604 108.851 75.4994C109.487 75.4385 109.998 75.0756 110.546 74.9013C111.58 74.5651 112.527 74.1155 113.549 73.7164C114.571 73.3173 115.754 73.082 116.764 72.6201C117.661 72.2457 118.608 71.7962 119.505 71.4218C120.763 70.9103 122.097 70.4493 123.355 69.9378C124.19 69.5759 125.025 69.2139 125.872 68.9149C127.018 68.491 128.215 67.9919 129.361 67.568C130.57 67.1318 131.828 66.6203 133.012 66.0583C134.083 65.584 135.167 65.1725 136.189 64.7734C136.613 64.6239 136.874 64.3105 137.298 64.1609C138.282 63.9 139.254 63.5761 140.263 63.1142C141.323 62.577 142.506 62.3417 143.653 61.9179C144.251 61.6683 144.874 61.5445 145.447 61.1692C145.621 61.0692 145.858 60.9568 145.97 61.1959C146.083 61.435 145.771 61.4969 145.647 61.5217C144.949 61.9218 144.239 62.2589 143.466 62.6085C142.407 63.1457 141.298 63.7582 140.239 64.2954C139.242 64.8203 138.258 65.408 137.174 65.8195C136.813 65.9566 136.589 66.4587 136.09 66.2309C135.579 66.9206 134.732 67.2197 134.022 67.5569C133.249 67.9065 132.514 68.4447 131.667 68.7437C130.583 69.1552 129.611 69.8058 128.614 70.3306C127.443 70.9555 126.272 71.5804 125.113 72.2681C124.304 72.7558 123.431 73.2559 122.609 73.6807C122.372 73.7931 121.986 73.8045 121.824 73.9674C121.102 74.5685 120.267 74.9304 119.507 75.3429C118.398 75.9553 117.289 76.5678 116.193 77.2432C115.62 77.6185 115.109 77.9814 114.498 78.1681C113.451 78.4414 112.417 77.7974 111.457 77.5306C110.634 77.3019 109.774 76.8846 108.889 76.6683C108.241 76.6664 107.631 76.5263 106.957 76.3986Z" fill="#BBB0DB"/>
<path d="M111.264 90.2482C111.675 89.709 112.335 89.4471 112.833 89.0213C113.556 88.4202 114.353 87.8697 115.163 87.382C115.911 86.9066 116.558 86.2551 117.306 85.7798C118.066 85.3673 118.714 84.7158 119.486 84.3662C119.96 84.1414 120.321 83.6775 120.782 83.3898C121.704 82.8145 122.601 82.1134 123.448 81.4876C124.295 80.8617 125.13 80.173 126.052 79.5977C126.513 79.31 126.861 78.7832 127.497 78.7223C127.621 78.6975 127.808 78.3336 127.97 78.1708C128.356 77.8326 128.817 77.5449 129.228 77.3325C129.814 77.0201 130.15 76.4304 130.811 76.1685C131.471 75.9066 132.106 75.5189 132.605 75.0931C133.315 74.4291 134.361 74.1558 134.984 73.3785C135.246 73.0651 135.557 73.0032 135.844 72.8155C136.467 72.365 137.127 72.103 137.75 71.6525C138.323 71.2772 138.884 70.839 139.519 70.4513C140.454 69.9388 141.301 69.313 142.235 68.8005C142.995 68.3881 143.743 67.9128 144.44 67.5127C146.073 66.6002 147.705 65.6877 149.324 64.7123C150.184 64.1493 151.206 63.7502 152.053 63.1244C152.738 62.6614 153.423 62.1985 154.046 61.748C154.158 61.6603 154.271 61.5727 154.108 61.4088C154.021 61.2955 153.909 61.3831 153.859 61.4583C153.423 61.8718 152.887 62.1089 152.414 62.3337C151.243 62.9586 150.171 63.7597 148.838 64.2207C148.115 64.495 147.505 65.0084 146.807 65.4085C146.172 65.7962 145.449 66.0705 144.826 66.521C144.029 67.0716 143.144 67.5088 142.272 68.0089C141.35 68.5842 140.453 69.2853 139.444 69.7473C138.971 69.9721 138.522 70.3226 137.999 70.6227C137.476 70.9227 136.94 71.1599 136.504 71.5733C135.893 72.0868 135.196 72.4868 134.56 72.8745C133.576 73.4622 132.617 74.1757 131.645 74.8263C130.561 75.5645 129.552 76.3532 128.393 77.041C127.583 77.5287 126.923 78.1174 126.188 78.6555C125.341 79.2814 124.382 79.6681 123.709 80.5207C123.448 80.8341 122.962 80.996 122.55 81.2084C121.803 81.6837 121.08 82.2848 120.333 82.7601C119.025 83.6736 117.654 84.5995 116.371 85.6387C115.649 86.2398 114.739 86.5512 114.091 87.2028C113.107 88.1173 111.911 88.6164 110.914 89.468C110.416 89.8938 109.88 90.131 109.444 90.5444C109.282 90.7073 109.295 90.7701 109.382 90.8835C109.469 90.9969 109.544 91.0474 109.656 90.9597C110.254 90.7102 110.715 90.4225 111.264 90.2482Z" fill="#BBB0DB"/>
<path d="M112.382 83.1638C112.083 83.2885 112.17 83.4019 112.27 83.5781C112.457 83.8677 112.669 83.9564 112.943 83.7058C113.105 83.5429 113.279 83.4429 113.105 83.2162C112.88 83.0647 112.644 82.8504 112.382 83.1638Z" fill="#BBB0DB"/>
<path d="M135.607 71.2943C135.557 71.0428 135.756 70.7417 135.42 70.6779C135.282 70.6398 134.983 70.7646 135.008 70.8903C135.058 71.1418 135.37 71.0799 135.607 71.2943Z" fill="#BBB0DB"/>
<path d="M152.748 56.1895C152.548 55.837 152.187 55.9742 152 56.0113C150.318 56.3456 148.635 56.3531 147.015 56.675C145.894 56.8978 144.76 57.0578 143.626 57.2178C142.629 57.4159 141.619 57.5511 140.622 57.7492C140.062 57.8606 139.414 58.1854 138.89 58.1587C137.843 58.1053 136.884 58.492 135.875 58.6272C134.803 58.7748 133.694 59.0606 132.635 59.271C131.825 59.432 130.977 59.7311 130.142 59.7663C129.806 59.7024 129.432 59.7767 129.083 59.9767C128.734 60.1768 128.286 60.2005 127.899 60.2119C126.952 60.3348 126.055 60.7091 125.108 60.832C124.024 60.9167 123.015 61.3787 121.893 61.6015C120.834 61.812 119.737 62.1606 118.616 62.3834C117.93 62.5196 117.208 62.7939 116.497 62.8043C116.36 62.7662 116.173 62.8034 116.086 63.0168C115.999 63.2301 115.899 63.3807 116.286 63.3692C117.258 63.3722 118.217 63.3122 119.127 63.0007C119.551 62.8512 119.987 62.7645 120.361 62.6903C121.694 62.556 122.903 62.1198 124.136 61.8093C124.996 61.5731 125.894 61.5255 126.816 61.2769C127.725 60.9655 128.697 60.9684 129.619 60.7198C130.554 60.5341 131.489 60.3484 132.411 60.0998C133.208 59.876 134.031 59.7779 134.903 59.6046C135.763 59.3684 136.71 59.2455 137.582 59.0722C138.579 58.8741 139.589 58.7389 140.585 58.5408C141.707 58.318 142.841 58.158 143.938 57.8094C144.486 57.6351 145.134 57.637 145.757 57.5132C146.941 57.278 148.15 57.1685 149.408 56.9838C150.355 56.8609 151.327 56.5371 152.287 56.4771C152.399 56.3895 152.561 56.2266 152.748 56.1895Z" fill="#BBB0DB"/>
<path d="M114.74 63.7415C114.778 63.6034 115.027 63.5539 114.803 63.4024C114.653 63.3014 114.516 62.9365 114.179 63.1995C114.067 63.2871 113.831 63.3995 114.067 63.6138C114.292 63.7653 114.554 63.7787 114.74 63.7415Z" fill="#BBB0DB"/>
<path d="M128.562 90.9284C128.488 90.8779 128.587 90.7274 128.375 90.6388C127.067 90.2453 125.77 89.9147 124.437 89.3954C124.088 89.2687 123.676 89.1543 123.327 89.0276C123.128 89.0019 122.941 89.039 122.891 89.1143C122.791 89.2648 123.003 89.3534 123.215 89.442C123.926 89.7583 124.686 89.9994 125.421 90.1147C126.294 90.2681 127.054 90.8359 127.964 90.8512C128.176 90.9398 128.376 90.9656 128.562 90.9284Z" fill="#BBB0DB"/>
<path d="M133.868 84.0576C133.868 83.4041 133.494 83.1516 133.107 82.8363C132.945 82.6724 132.671 82.5962 132.446 82.7715C132.334 82.8591 132.235 83.0096 132.123 83.0973C132.285 83.2611 132.447 83.425 132.659 83.5136C133.132 83.6155 133.531 83.667 133.868 84.0576Z" fill="#BBB0DB"/>
<path d="M129.72 87.6268C129.882 88.1174 130.368 87.9555 130.542 87.8555C130.841 87.7307 130.455 87.4153 130.529 87.1391C130.193 87.0752 129.919 86.6723 129.632 86.8599C129.296 87.1228 129.483 87.4124 129.72 87.6268Z" fill="#BBB0DB"/>
</g>
</g>
<g clip-path="url(#clip3_1040_1503)">
<g clip-path="url(#clip4_1040_1503)">
<g clip-path="url(#clip5_1040_1503)">
<path d="M365.206 243.052C364.909 242.533 364.521 241.912 364.052 241.344C363.69 240.937 363.51 240.386 363.17 239.941C362.936 239.658 362.712 239.529 362.3 239.641C361.888 239.753 361.402 239.821 360.975 239.527C360.826 239.441 360.602 239.312 360.382 239.435C360.302 239.488 360.094 239.418 360.078 239.36C359.647 238.813 358.921 238.695 358.447 238.223C358.266 238.02 358.026 237.832 357.941 237.634C357.793 237.201 357.366 236.906 357.299 236.419C357.251 236.243 357.092 236.002 356.985 235.841C356.692 235.573 356.715 235.188 356.71 234.937C356.696 234.53 356.387 234.203 356.586 233.77C356.65 233.658 356.271 233.54 356.063 233.47C355.417 233.298 354.959 232.885 354.378 232.601C354.02 232.446 353.952 231.959 353.509 231.953C353.354 231.963 353.52 231.76 353.392 231.637C353.046 231.289 352.823 230.812 352.557 230.411C352.148 229.827 352.327 229.084 351.917 228.5C351.864 228.42 351.944 228.367 351.987 228.292C352.218 227.976 351.974 227.537 352.242 227.244C352.13 227.179 352.178 227.008 351.992 226.901C351.379 226.499 350.744 226.134 350.211 225.679C349.476 225.057 348.805 224.324 348.493 223.398C348.414 223.103 348.415 222.756 348.394 222.445C348.4 222.349 348.443 222.274 348.39 222.194C348.087 221.771 348.457 221.386 348.516 221.023C348.522 220.926 348.602 220.873 348.49 220.809C347.712 220.262 347.196 219.518 346.702 218.736C346.245 217.976 345.868 217.162 345.711 216.226C345.653 215.894 345.596 215.563 345.634 215.236C345.688 214.969 345.625 214.733 345.444 214.53C345.007 214.08 344.571 213.63 344.338 212.999C344.269 212.859 344.184 212.661 344.056 212.538C343.625 211.992 343.723 211.302 343.469 210.708C343.352 210.392 343.514 209.938 343.574 209.574C343.667 208.98 343.598 208.841 343.054 208.578C342.584 208.358 342.297 207.994 342.031 207.593C341.909 207.373 341.663 207.282 341.52 207.1C341.429 206.998 341.301 206.875 341.307 206.779C341.213 206.078 340.846 205.419 340.694 204.734C340.425 203.734 340.406 202.728 340.447 201.706C340.46 201.166 340.686 200.599 340.853 200.048C340.972 199.669 341.203 199.353 341.284 198.952C341.317 198.722 341.735 198.514 341.869 198.194C342.176 197.573 342.738 197.2 343.279 196.863C343.745 196.484 344.291 196.052 344.965 196.09C345.194 196.122 345.419 195.903 345.708 195.92C346.322 195.974 346.915 196.066 347.502 196.254C347.844 196.351 348.032 196.11 348.235 195.929C348.701 195.549 349.205 195.192 349.687 194.871C350.672 194.193 351.695 193.537 352.786 193.019C353.322 192.779 353.862 192.443 354.397 192.203C354.895 191.941 355.468 191.723 355.912 191.381C356.737 190.81 357.678 190.554 358.497 190.079C359.359 189.529 360.269 189.156 361.184 188.687C362.458 188.025 363.732 187.363 364.984 186.739C365.76 186.339 366.643 186.099 367.371 185.523C367.998 185.037 368.79 184.695 369.539 184.429C370.545 184.061 371.497 183.613 372.503 183.245C373.37 182.947 374.183 182.568 375.16 182.682C375.353 182.693 375.561 182.763 375.705 182.945C375.992 183.309 376.242 183.651 376.492 183.994C376.779 184.358 376.826 184.883 377.317 185.065C377.354 185.087 377.343 185.279 377.396 185.359C377.55 185.697 377.704 186.034 377.9 186.296C378.225 186.682 378.448 187.158 378.655 187.576C378.931 188.132 379.244 188.711 379.542 189.23C379.893 189.829 380.184 190.445 380.535 191.045C380.801 191.446 381.008 191.864 381.193 192.319C381.401 192.736 381.484 193.282 381.911 193.577C382.06 193.662 381.899 193.769 381.931 193.887C382.243 194.813 382.796 195.578 383.291 196.36C383.435 196.542 383.439 196.794 383.524 196.992C383.715 197.35 383.906 197.709 384.119 198.03C384.539 198.769 384.819 199.577 385.26 200.278C385.664 200.958 385.988 201.692 386.296 202.366C386.55 202.96 386.724 203.608 387.096 204.17C387.596 204.855 387.738 205.733 388.179 206.434C388.551 206.996 388.682 207.719 389.017 208.259C389.39 208.822 389.542 209.506 389.893 210.106C390.068 210.406 390.104 210.775 390.28 211.075C390.769 211.953 391.177 212.884 391.607 213.778C391.936 214.415 392.281 215.111 392.551 215.764C392.827 216.321 393.023 216.931 393.278 217.525C393.601 218.258 393.925 218.991 394.248 219.725C394.678 220.619 395.145 221.534 395.634 222.412C396.038 223.092 396.303 223.841 396.53 224.569C396.678 225.002 396.528 225.264 396.169 225.456C396.009 225.563 396.024 225.622 396.013 225.815C396.022 226.317 396.053 226.783 396.083 227.248C396.199 227.912 396.137 228.623 396.488 229.223C396.595 229.383 396.717 229.603 396.936 229.48C397.054 229.448 397.177 229.32 397.283 229.481C397.352 229.62 397.266 229.769 397.143 229.898C396.554 230.405 395.773 230.554 395.136 230.885C394.499 231.215 393.793 231.407 393.268 231.802C393.086 231.946 392.835 231.951 392.675 232.058C392.434 232.218 392.155 232.357 391.898 232.458C391.165 232.784 390.47 233.13 389.774 233.477C389.137 233.808 388.441 234.155 387.767 234.464C386.916 234.821 386.044 235.216 385.246 235.654C385.027 235.777 384.701 235.739 384.46 235.899C383.678 236.395 382.796 236.635 381.982 237.014C381.308 237.323 380.575 237.648 379.901 237.958C378.927 238.443 377.905 238.752 376.931 239.238C376.177 239.6 375.422 239.963 374.614 240.245C373.726 240.581 372.854 240.976 372.019 241.392C371.521 241.654 370.965 241.931 370.457 242.037C369.868 242.197 369.349 242.496 368.761 242.656C368.386 242.789 368.012 242.922 367.691 243.136C367.187 243.493 366.536 243.418 366.032 243.775C365.946 243.925 365.37 243.544 365.206 243.052ZM382.468 232.366C382.468 232.366 382.446 232.403 382.409 232.382C382.324 232.184 382.169 232.194 382.009 232.301C381.891 232.333 381.826 232.445 381.687 232.514C380.911 232.914 380.05 233.117 379.312 233.538C379.172 233.608 379.086 233.757 378.931 233.768C378.086 234.029 377.289 234.466 376.475 234.845C376.336 234.914 376.218 234.946 376.079 235.016C375.17 235.389 374.276 235.821 373.404 236.216C373.008 236.386 372.612 236.557 372.216 236.728C371.783 236.877 371.365 237.085 370.873 237.25C369.691 237.666 368.593 238.28 367.571 238.936C367.191 239.166 367.146 239.588 367.108 239.915C367.075 240.145 367.412 239.99 367.583 240.038C367.562 240.076 367.578 240.135 367.556 240.172C366.952 240.273 366.827 240.749 366.74 241.246C366.735 241.342 366.708 241.476 366.745 241.497C366.82 241.54 366.937 241.508 367.018 241.455C367.264 241.199 367.574 241.178 367.884 241.157C368.098 241.13 368.328 241.163 368.451 241.034C368.933 240.714 369.484 240.533 369.982 240.271C370.897 239.802 371.828 239.391 372.706 238.9C373.525 238.425 374.413 238.089 375.248 237.673C375.922 237.364 376.596 237.055 377.196 236.702C377.935 236.281 378.721 236.036 379.46 235.614C379.899 235.369 380.434 235.129 380.963 234.985C381.257 234.905 381.589 234.847 381.83 234.686C382.531 234.243 383.28 233.977 384.035 233.614C384.768 233.289 385.479 233.001 386.212 232.675C387.004 232.334 387.802 231.897 388.647 231.636C389.139 231.47 389.578 231.225 390.054 231.001C391.799 230.211 393.591 229.599 395.335 228.809C395.475 228.74 395.838 228.799 395.743 228.446C395.695 228.269 395.685 228.114 395.675 227.959C395.634 227.339 395.447 227.231 394.896 227.413C394.463 227.562 394.03 227.711 393.575 227.898C392.805 228.201 392.072 228.527 391.285 228.772C390.536 229.038 389.841 229.385 389.129 229.673C388.498 229.908 387.935 230.281 387.294 230.361C387.225 230.221 387.231 230.125 387.445 230.099C387.915 229.971 388.295 229.741 388.75 229.555C389.285 229.315 389.836 229.134 390.312 228.91C391.104 228.568 391.875 228.264 392.682 227.982C393.394 227.694 394.143 227.428 394.855 227.14C395.229 227.006 395.806 227.039 395.52 226.327C395.504 226.269 395.596 226.023 395.521 225.98C395.43 225.878 395.264 226.081 395.205 226.097C394.938 226.043 394.809 226.268 394.611 226.353C393.739 226.748 392.883 227.201 392.01 227.596C391.454 227.873 390.897 228.151 390.287 228.348C389.795 228.513 389.341 228.7 388.902 228.945C388.543 229.137 388.184 229.329 387.788 229.5C386.938 229.857 386.177 230.316 385.327 230.674C384.733 230.93 384.17 231.303 383.561 231.5C383.186 231.634 382.918 231.928 382.506 232.039C382.367 232.109 382.377 232.264 382.468 232.366ZM352.018 210.692C352.059 211.313 352.662 211.56 352.687 212.122C352.723 212.491 353.09 212.801 353.185 213.155C353.36 213.802 353.871 214.295 354.024 214.98C354.034 215.135 354.284 215.478 354.733 215.387C355.572 215.223 356.444 215.176 357.286 215.61C358.129 216.045 358.753 216.602 359.188 217.399C359.257 217.538 359.283 217.752 359.546 217.555C359.647 217.464 359.84 217.475 359.93 217.577C360.058 217.7 360.202 217.882 360.094 218.069C359.965 218.294 359.874 218.54 359.595 218.678C359.215 218.908 358.901 218.677 358.682 218.452C358.501 218.249 358.609 218.062 358.791 217.918C358.871 217.864 358.856 217.805 358.818 217.784C358.594 217.655 358.515 217.361 358.35 217.216C357.683 216.734 356.953 216.364 356.13 216.24C355.767 216.18 355.404 216.121 355.035 216.158C354.821 216.185 354.676 216.35 354.804 216.473C355.108 216.896 355.368 217.394 355.649 217.855C355.984 218.395 356.143 218.984 356.456 219.562C356.769 220.14 357.083 220.718 357.353 221.371C357.454 221.628 357.737 221.741 357.913 221.693C358.448 221.453 358.955 221.695 359.452 221.781C360.044 221.873 360.728 222.066 361.186 222.479C361.426 222.666 361.698 222.624 361.901 222.79C362.247 223.138 362.636 223.411 362.902 223.813C363.046 223.995 363.152 224.155 363.382 224.188C363.649 224.242 363.691 224.515 363.62 224.723C363.523 225.065 363.245 225.204 362.967 225.343C362.688 225.481 362.427 225.331 362.342 225.133C362.257 224.935 361.986 224.63 362.366 224.4C362.446 224.347 362.436 224.192 362.324 224.128C362.121 223.962 361.978 223.779 361.775 223.613C361.423 223.361 361.05 223.147 360.677 222.933C360.341 222.739 359.935 222.755 359.577 222.599C359.182 222.422 358.776 222.438 358.333 222.432C358.199 222.405 358.082 222.437 358.001 222.49C357.937 222.603 357.947 222.758 358.118 222.806C358.566 223.063 358.516 223.582 358.803 223.946C359.038 224.23 359.186 224.664 359.398 224.985C359.845 225.59 360.014 226.334 360.482 226.901C360.716 227.185 360.982 227.587 361.072 228.036C361.087 228.095 361.21 228.315 361.38 228.363C362.315 228.552 363.239 228.585 364.168 228.87C364.926 229.106 365.496 229.583 366.168 229.969C366.616 230.226 366.914 230.746 367.115 231.259C367.216 231.516 367.257 231.789 367.626 231.752C367.722 231.758 367.754 231.875 367.77 231.934C367.886 232.25 367.741 232.763 367.425 232.881C367.131 232.96 366.809 233.174 366.538 232.869C366.245 232.601 366.321 232.296 366.567 232.04C366.712 231.874 366.686 231.66 366.574 231.596C366.26 231.365 366.047 231.044 365.791 230.798C365.355 230.348 364.783 230.218 364.304 229.843C364.011 229.575 363.636 229.709 363.316 229.575C362.825 229.392 362.43 229.215 361.863 229.337C361.569 229.417 361.681 229.481 361.692 229.637C361.787 229.99 362.058 230.295 362.175 230.611C362.449 231.515 362.987 232.222 363.422 233.02C363.964 233.978 364.586 234.883 365.15 235.804C365.538 236.425 366.071 236.88 366.502 237.426C366.592 237.528 366.683 237.63 366.693 237.785C366.74 237.962 366.777 238.331 367.114 238.176C367.371 238.075 367.681 238.054 367.863 237.91C368.366 237.552 368.976 237.355 369.548 237.136C370.56 236.672 371.55 236.245 372.561 235.781C373.155 235.525 373.749 235.269 374.327 234.955C375.066 234.533 375.83 234.325 376.585 233.963C377.377 233.621 378.116 233.2 378.87 232.837C379.743 232.442 380.556 232.063 381.428 231.669C382.081 231.397 382.734 231.125 383.333 230.773C383.97 230.442 384.602 230.207 385.217 229.914C385.891 229.604 386.565 229.295 387.24 228.986C387.775 228.746 388.288 228.543 388.824 228.303C389.519 227.956 390.247 227.727 390.868 227.338C391.949 226.665 393.132 226.249 394.192 225.614C394.674 225.294 395.256 225.23 395.701 224.889C395.904 224.707 395.91 224.611 395.809 224.354C395.677 223.979 395.325 223.727 395.268 223.396C395.132 222.422 394.557 221.694 394.202 220.843C393.963 220.307 393.783 219.756 393.486 219.237C393.098 218.616 392.908 217.909 392.541 217.251C392.212 216.614 391.963 215.924 391.634 215.287C391.443 214.928 391.407 214.559 391.135 214.253C390.954 214.05 390.779 213.75 390.737 213.477C390.637 212.873 390.222 212.385 390.005 211.813C389.819 211.358 389.554 210.956 389.368 210.501C389.013 209.65 388.599 208.815 388.185 207.98C387.856 207.343 387.607 206.653 387.277 206.016C387.07 205.598 386.944 205.127 386.678 204.726C386.125 203.96 385.887 203.077 385.51 202.263C385.059 201.407 384.629 200.513 384.221 199.582C384.099 199.362 383.896 199.196 383.849 199.02C383.351 197.639 382.388 196.289 381.741 194.823C381.216 193.576 380.493 192.414 379.851 191.199C379.766 191.001 379.659 190.84 379.575 190.642C379.092 189.668 378.33 188.832 378.008 187.751C377.992 187.693 377.901 187.591 377.864 187.569C377.614 187.227 377.225 186.953 377.275 186.434C377.28 186.338 377.265 186.279 377.249 186.22C376.935 185.642 376.579 185.139 376.244 184.598C376.016 184.218 375.809 183.801 375.543 183.399C375.421 183.18 375.218 183.014 374.999 183.136C374.485 183.339 373.977 183.445 373.426 183.626C372.522 183.903 371.65 184.298 370.799 184.655C369.927 185.05 369.076 185.407 368.263 185.786C367.867 185.957 367.524 186.208 367.128 186.378C366.513 186.672 365.881 186.906 365.282 187.258C365.143 187.328 365.035 187.515 364.88 187.525C364.415 187.557 364.014 187.824 363.633 188.053C363.114 188.352 362.595 188.651 362.022 188.87C361.883 188.939 361.76 189.067 361.605 189.078C361.429 189.126 361.396 189.356 361.241 189.366C360.642 189.371 360.267 189.852 359.716 190.033C359.084 190.267 358.442 190.694 357.826 190.988C357.168 191.356 356.419 191.622 355.798 192.012C354.615 192.776 353.384 193.362 352.185 194.067C351.125 194.702 350.043 195.375 348.961 196.047C348.421 196.383 348.437 196.442 348.954 196.839C348.991 196.86 349.028 196.882 349.066 196.903C349.465 197.332 349.821 197.835 350.199 198.301C350.561 198.708 350.666 199.216 350.969 199.639C351.15 199.843 350.957 200.18 351.197 200.367C351.549 200.619 351.548 200.967 351.434 201.25C351.343 201.496 351.021 201.71 350.711 201.731C350.498 201.757 350.29 201.687 350.183 201.527C350.077 201.366 350.088 201.173 350.233 201.008C350.313 200.954 350.297 200.895 350.303 200.799C350.028 199.895 349.834 198.937 349.104 198.219C348.939 198.075 348.752 197.967 348.667 197.769C348.476 197.411 348.113 197.351 347.857 197.105C347.767 197.003 347.649 197.035 347.451 197.12C347.253 197.206 347.087 197.409 346.852 197.473C346.359 197.638 346.354 197.734 346.598 198.173C346.858 198.671 347.14 199.131 347.341 199.645C348.031 201.037 348.443 202.567 349.031 204.05C349.148 204.366 349.335 204.473 349.57 204.409C350.933 204.197 351.898 204.851 352.729 205.825C352.856 205.949 352.941 206.147 353.053 206.211C353.507 206.372 353.527 206.682 353.371 207.041C353.279 207.287 352.744 207.527 352.483 207.376C352.184 207.205 352.003 207.001 352.218 206.627C352.261 206.552 352.245 206.493 352.214 206.376C351.922 205.76 351.302 205.802 350.817 205.523C350.481 205.33 350.053 205.383 349.733 205.249C349.301 205.051 349.439 205.329 349.427 205.522C349.41 205.81 349.693 205.923 349.735 206.196C349.793 206.528 349.925 206.902 350.079 207.24C350.424 207.935 350.769 208.631 351.034 209.381C351.134 209.637 351.337 209.804 351.529 209.814C351.989 209.879 352.485 209.966 352.923 210.068C353.777 210.31 354.637 210.455 355.249 211.205C355.393 211.387 355.578 211.842 356.113 211.602C356.45 211.447 356.683 212.079 356.453 212.394C356.243 212.672 355.971 212.714 355.661 212.735C355.196 212.767 355.046 212.681 355.091 212.258C355.08 212.103 355.086 212.007 354.937 211.921C354.601 211.728 354.345 211.482 354.031 211.251C353.476 210.833 352.766 210.774 352.018 210.692ZM396.273 229.597C396.21 229.361 395.927 229.249 395.901 229.035C395.885 228.976 395.811 228.933 395.634 228.981C395.217 229.189 394.858 229.381 394.425 229.53C393.515 229.903 392.584 230.314 391.674 230.687C390.273 231.226 388.919 231.941 387.48 232.458C386.591 232.794 385.735 233.247 384.884 233.604C384.071 233.983 383.257 234.362 382.391 234.66C382.156 234.724 381.883 234.767 381.722 234.873C381.438 235.108 381.123 235.226 380.786 235.38C380.074 235.668 379.416 236.037 378.704 236.324C377.736 236.714 376.815 237.279 375.825 237.706C375.488 237.861 375.225 238.058 374.872 238.154C374.6 238.197 374.337 238.394 374.059 238.533C373.561 238.794 373.01 238.976 372.565 239.317C372.303 239.515 371.972 239.573 371.634 239.728C370.96 240.037 370.286 240.347 369.649 240.678C369.071 240.992 368.477 241.248 367.867 241.445C367.551 241.563 367.268 241.798 366.861 241.813C366.61 241.818 366.368 242.326 366.522 242.663C366.623 242.92 366.864 242.76 367.04 242.712C367.607 242.59 368.105 242.328 368.64 242.088C369.512 241.694 370.379 241.395 371.214 240.979C371.631 240.771 372.033 240.504 372.482 240.414C373.15 240.201 373.744 239.945 374.36 239.651C375.034 239.342 375.671 239.011 376.324 238.739C377.174 238.382 378.019 238.121 378.839 237.646C378.999 237.539 379.123 237.411 379.336 237.384C380.021 237.23 380.642 236.841 381.295 236.569C382.226 236.158 383.157 235.747 384.088 235.337C384.66 235.118 385.286 234.98 385.805 234.681C385.886 234.628 385.844 234.355 386.068 234.483C386.254 234.591 386.399 234.425 386.576 234.377C387.185 234.18 387.598 233.72 388.187 233.561C388.775 233.401 389.284 232.947 389.872 232.787C390.541 232.574 391.14 232.222 391.777 231.891C392.275 231.63 392.81 231.39 393.324 231.187C394.233 230.814 395.074 230.301 396.021 229.95C396.235 229.923 396.358 229.795 396.273 229.597ZM344.195 207.542C344.12 207.499 344.12 207.499 344.083 207.478C344.318 207.414 344.165 207.077 344.341 207.029C344.802 206.746 345.059 206.297 345.483 205.992C345.584 205.902 345.665 205.848 345.515 205.762C345.276 205.575 345.389 205.291 345.4 205.099C345.484 204.002 345.316 202.911 345.459 201.798C345.536 201.146 345.575 200.472 345.652 199.819C345.712 199.456 345.772 199.092 345.758 198.686C345.701 198.006 345.719 197.37 346.49 197.066C346.548 197.05 346.57 197.012 346.591 196.975C346.672 196.921 346.715 196.847 346.662 196.766C346.63 196.649 346.534 196.643 346.438 196.638C346.245 196.627 346.122 196.755 345.951 196.706C345.011 196.614 344.192 197.089 343.501 197.688C343.297 197.869 343.05 198.126 342.831 198.248C342.429 198.515 342.252 198.911 342.037 199.285C341.736 199.809 341.547 200.397 341.411 201.066C341.247 202.215 341.259 203.317 341.486 204.393C341.581 204.746 341.75 205.142 341.845 205.495C341.94 205.849 342.255 206.079 342.328 206.47C342.408 206.764 342.658 207.107 342.951 207.374C343.079 207.498 343.308 207.53 343.393 207.728C343.441 207.905 343.627 208.012 343.745 207.98C343.98 207.916 344.072 207.67 344.195 207.542ZM365.077 241.634C365.178 241.891 365.353 242.191 365.47 242.507C365.502 242.625 365.629 242.748 365.715 242.598C365.828 242.315 365.942 242.031 365.959 241.743C365.96 241.395 366.057 241.053 366.149 240.807C366.31 240.352 366.547 239.941 366.575 239.459C366.587 239.267 366.539 239.09 366.411 238.967C365.862 238.453 365.694 237.709 365.188 237.12C364.736 236.611 364.428 235.936 364.019 235.353C363.699 234.871 363.439 234.373 363.12 233.891C362.801 233.409 362.525 232.853 362.169 232.349C361.972 232.087 361.973 231.739 361.776 231.477C361.398 231.011 361.299 230.406 361.098 229.893C360.997 229.636 360.992 229.384 360.543 229.475C360.153 229.549 359.763 229.623 359.351 229.735C359.078 229.778 358.869 230.055 358.612 230.157C358.591 230.194 358.548 230.269 358.548 230.269C358.729 230.473 358.519 230.75 358.796 230.959C358.946 231.045 359.084 231.324 359.206 231.543C359.344 231.821 359.278 232.281 359.759 232.309C359.797 232.33 359.812 232.389 359.828 232.448C360.082 233.39 360.57 234.268 361.065 235.049C361.596 235.852 361.989 236.725 362.499 237.565C362.94 238.267 363.403 238.931 363.742 239.723C364.109 240.381 364.615 240.97 365.077 241.634ZM360.498 228.603C360.265 227.971 359.769 227.537 359.67 226.933C359.654 226.874 359.638 226.815 359.601 226.793C359.239 226.386 359.016 225.91 358.772 225.471C358.267 224.534 357.8 223.619 357.333 222.703C357.28 222.623 357.226 222.543 357.109 222.575C356.638 222.702 356.136 222.713 355.734 222.979C355.654 223.033 355.632 223.07 355.536 223.065C355.21 223.027 355.038 223.326 354.835 223.508C354.674 223.615 354.892 223.84 354.924 223.957C354.976 224.385 355.365 224.659 355.439 225.049C355.497 225.381 355.693 225.643 355.853 225.884C355.906 225.965 356.018 226.029 356.028 226.184C356.171 226.714 356.409 227.249 356.793 227.619C357.267 228.09 357.484 228.663 357.723 229.198C357.893 229.594 358.091 229.509 358.289 229.423C358.931 228.996 359.611 228.591 360.498 228.603ZM352.957 229.197C352.951 229.293 353.085 229.32 353.116 229.438C353.141 230 353.466 230.385 353.753 230.749C354.253 231.435 355.037 231.885 355.66 232.442C355.788 232.566 355.97 232.421 356.039 232.561C356.103 232.796 356.263 232.689 356.344 232.636C356.461 232.604 356.616 232.593 356.628 232.401C356.609 231.743 356.872 231.198 357.173 230.674C357.281 230.487 357.415 230.166 357.378 230.144C357.075 229.721 356.975 229.117 356.613 228.71C356.395 228.485 356.214 228.281 356.119 227.928C356.055 227.693 355.982 227.302 355.656 227.264C355.33 227.226 354.903 227.279 354.571 227.338C354.063 227.444 353.62 227.438 353.123 227.352C353.027 227.346 352.942 227.148 352.835 227.335C352.77 227.448 352.668 227.538 352.753 227.736C352.838 227.934 352.896 228.266 352.89 228.362C352.755 228.683 352.915 228.924 352.957 229.197ZM352.318 217.085C351.761 217.363 351.675 217.512 351.835 217.753C351.994 217.994 352.111 218.31 352.211 218.567C352.472 219.065 352.791 219.547 352.933 220.076C353.028 220.43 353.241 220.751 353.395 221.088C353.655 221.586 353.974 222.068 354.154 222.619C354.17 222.678 354.217 222.854 354.319 222.764C354.523 222.582 354.811 222.598 355.015 222.417C355.299 222.182 355.614 222.065 355.983 222.028C356.86 221.884 356.822 221.863 356.424 221.087C356.18 220.648 355.839 220.203 355.729 219.791C355.608 219.224 355.122 218.945 355.001 218.378C354.933 217.891 354.497 217.441 354.295 216.927C354.216 216.633 354.057 216.392 353.602 216.579C353.227 216.712 352.682 216.797 352.318 217.085ZM350.959 215.907C351.103 216.089 351.278 216.388 351.453 216.688C351.522 216.827 351.581 216.812 351.624 216.737C352.112 216.32 352.706 216.064 353.284 215.749C353.584 215.573 353.605 215.536 353.467 215.257C353.159 214.583 352.873 213.871 352.507 213.213C352.124 212.495 351.801 211.762 351.418 211.045C351.296 210.825 351.243 210.745 351.029 210.771C350.468 210.797 349.96 210.904 349.484 211.128C349.286 211.213 348.997 211.197 348.868 211.421C348.718 211.683 349.06 211.78 349.123 212.015C349.139 212.074 349.176 212.096 349.155 212.133C349.404 212.823 349.77 213.482 350.099 214.119C350.221 214.338 350.44 214.563 350.45 214.718C350.502 215.146 350.774 215.452 350.959 215.907ZM349.918 223.769C350.013 224.122 350.295 224.582 350.737 224.936C351.195 225.349 351.696 225.686 352.198 226.024C352.235 226.045 352.422 226.153 352.374 225.976C352.332 225.703 352.514 225.559 352.547 225.329C352.715 224.778 352.978 224.233 353.391 223.773C353.681 223.442 353.602 223.148 353.426 222.848C353.203 222.372 352.922 221.911 352.699 221.435C352.651 221.258 352.567 221.06 352.347 221.183C351.951 221.354 351.598 221.449 351.155 221.443C350.54 221.389 349.931 221.586 349.355 221.206C349.243 221.141 349.125 221.173 349.135 221.328C349.32 222.131 349.488 222.875 349.918 223.769ZM358.755 237.256C358.973 237.481 359.17 237.743 359.41 237.93C359.948 238.29 360.594 238.462 361.175 238.746C361.57 238.923 361.897 238.613 362.239 238.71C362.335 238.715 362.325 238.56 362.272 238.48C362.165 238.319 362.081 238.121 361.931 238.035C361.782 237.95 361.691 237.848 361.719 237.714C361.751 237.484 361.624 237.361 361.48 237.179C361.192 236.815 360.846 236.467 360.741 235.958C360.678 235.723 360.534 235.541 360.412 235.321C360.168 234.882 359.864 234.459 359.743 233.892C359.696 233.716 359.532 233.223 359.173 233.415C358.734 233.661 358.312 233.617 357.863 233.708C357.494 233.745 357.269 233.964 357.343 234.354C357.4 234.686 357.48 234.98 357.714 235.264C357.767 235.345 357.863 235.35 357.82 235.425C357.664 235.783 358.037 235.998 358.058 236.308C358.169 236.72 358.622 236.881 358.755 237.256ZM348.025 209.692C348.131 209.853 348.178 210.029 348.285 210.19C348.454 210.586 348.727 210.544 349.043 210.426C349.594 210.245 350.097 209.887 350.701 209.787C350.915 209.76 350.787 209.637 350.771 209.578C350.639 209.203 350.485 208.866 350.331 208.529C349.998 207.641 349.466 206.837 349.271 205.88C349.134 205.254 348.718 205.114 348.14 205.429C347.723 205.637 347.289 205.786 346.909 206.016C346.829 206.069 346.401 206.122 346.62 206.347C347.04 206.738 346.728 207.454 347.353 207.664C347.234 208.043 347.527 208.311 347.643 208.627C347.68 208.996 347.871 209.355 348.025 209.692ZM348.686 219.777C348.906 219.654 348.981 219.349 349.067 219.199C349.401 218.446 350.044 218.018 350.543 217.409C350.709 217.206 350.752 217.131 350.614 216.853C350.423 216.494 350.071 216.242 350.019 215.814C349.882 215.188 349.904 215.151 349.341 215.525C349.341 215.525 349.341 215.525 349.282 215.541C348.486 215.631 347.668 215.758 346.873 215.5C346.739 215.473 346.58 215.232 346.472 215.419C346.349 215.547 346.354 215.799 346.38 216.013C346.447 216.5 346.794 216.848 346.942 217.281C347.143 217.795 347.344 218.309 347.722 218.775C347.935 219.096 348.207 219.401 348.457 219.744C348.51 219.824 348.547 219.846 348.686 219.777ZM346.244 198.617C346.268 199.526 346.211 200.489 346.198 201.377C346.201 201.976 346.087 202.607 346.031 203.222C345.954 203.875 345.936 204.511 346.169 205.143C346.233 205.378 346.366 205.405 346.527 205.298C346.752 205.079 347.083 205.021 347.378 204.941C347.693 204.824 347.961 204.53 348.383 204.573C348.517 204.6 348.795 204.461 348.679 204.146C348.546 203.771 348.435 203.359 348.303 202.984C347.979 202.251 347.656 201.518 347.391 200.769C346.993 199.992 346.648 199.297 346.244 198.617ZM345.39 213.155C345.496 213.316 345.602 213.476 345.693 213.578C345.799 213.739 345.917 213.707 345.966 213.536C346.058 212.942 346.354 212.514 346.745 212.092C346.992 211.836 347.238 211.579 347.56 211.366C347.72 211.259 347.844 211.131 347.684 210.89C347.381 210.467 347.254 209.996 347.127 209.525C346.932 208.915 346.813 209.295 346.578 209.359C346.07 209.465 345.583 209.534 345.076 209.292C344.927 209.207 344.778 209.121 344.644 209.094C344.473 209.046 344.324 208.96 344.323 209.307C344.256 210.115 344.617 210.87 344.807 211.576C344.928 212.143 345.188 212.641 345.39 213.155ZM349.184 214.588C349.206 214.551 349.473 214.605 349.35 214.385C349.244 214.225 349.159 214.027 349.074 213.829C348.879 213.218 348.324 212.801 348.246 212.158C348.215 212.041 348.156 212.057 348.017 212.126C347.652 212.414 347.565 212.912 347.148 213.12C347.089 213.136 347.164 213.179 347.142 213.216C347.227 213.414 347.045 213.558 346.906 213.628C346.606 213.804 346.701 214.157 346.55 214.419C346.507 214.494 346.63 214.713 346.71 214.66C347.026 214.543 347.185 214.784 347.393 214.853C348.039 215.025 348.563 214.978 349.184 214.588ZM351.06 217.806C351.102 218.079 351.128 218.293 350.802 218.255C350.706 218.249 350.508 218.335 350.459 218.506C350.41 218.677 350.34 218.885 350.217 219.014C349.911 219.286 349.814 219.628 349.621 219.965C349.513 220.152 349.555 220.425 349.785 220.457C350.185 220.538 350.57 220.56 350.986 220.7C351.328 220.796 351.702 220.663 352.002 220.487C352.163 220.38 352.168 220.284 352.158 220.129C352.128 219.663 351.781 219.315 351.671 218.903C351.517 218.566 351.347 218.17 351.06 217.806ZM354.473 224.743C354.382 224.641 354.313 224.502 354.207 224.342C354.138 224.202 353.983 224.213 353.918 224.325C353.746 224.624 353.462 224.859 353.499 225.229C353.535 225.598 353.272 225.795 353.159 226.079C353.046 226.362 353.099 226.442 353.307 226.512C353.857 226.679 354.387 226.535 354.932 226.45C355.205 226.408 355.194 226.253 355.088 226.092C354.94 225.658 354.696 225.219 354.473 224.743ZM346.009 206.892C345.945 206.656 345.833 206.592 345.651 206.736C345.549 206.827 345.447 206.918 345.361 207.067C345.147 207.442 344.932 207.816 344.717 208.19C344.609 208.377 344.721 208.441 344.876 208.431C345.341 208.399 345.822 208.427 346.287 208.395C346.383 208.401 346.501 208.369 346.469 208.251C346.406 208.016 346.283 207.796 346.279 207.545C346.253 207.331 345.975 207.469 346.039 207.357C346.184 207.192 346.078 207.031 346.009 206.892ZM357.99 230.894C357.528 231.525 357.435 232.118 357.38 232.734C357.347 232.964 357.428 232.91 357.598 232.958C358.036 233.061 358.294 232.612 358.679 232.634C358.775 232.639 358.904 232.415 358.776 232.291C358.505 231.986 358.49 231.58 358.16 231.29C358.144 231.231 357.893 231.236 357.99 230.894Z" fill="#BBB0DB"/>
<path d="M382.468 232.366C382.735 232.419 382.901 232.216 383.158 232.115C383.87 231.827 384.581 231.539 385.224 231.112C385.823 230.76 386.471 230.584 387.064 230.328C387.204 230.259 387.198 230.355 387.251 230.435C386.726 230.831 386.132 231.087 385.538 231.343C384.923 231.636 384.307 231.929 383.729 232.244C383.488 232.404 383.194 232.484 382.879 232.601C382.006 232.996 381.128 233.487 380.219 233.86C379.331 234.196 378.586 234.714 377.757 235.034C377.126 235.269 376.526 235.621 375.911 235.914C375.472 236.16 375.033 236.405 374.541 236.57C373.968 236.789 373.481 237.206 372.908 237.424C372.218 237.675 371.65 238.145 370.96 238.395C370.447 238.598 369.965 238.918 369.467 239.179C369.451 239.121 369.414 239.099 369.398 239.04C369.576 238.645 369.982 238.629 370.281 238.453C370.903 238.063 371.593 237.813 372.214 237.423C372.974 236.964 373.787 236.585 374.563 236.185C375.163 235.833 375.837 235.524 376.453 235.23C377.127 234.921 377.807 234.515 378.519 234.227C379.112 233.971 379.765 233.699 380.343 233.384C381.023 232.979 381.767 232.809 382.372 232.36C382.409 232.382 382.431 232.344 382.468 232.366Z" fill="#BBB0DB"/>
<path d="M360.341 209.602C360.209 209.227 359.953 208.981 359.778 208.681C359.533 208.242 359.348 207.787 359.162 207.332C358.961 206.818 358.701 206.32 358.5 205.806C358.235 205.057 357.911 204.324 357.588 203.591C357.057 202.44 356.585 201.273 355.916 200.192C355.74 199.892 355.624 199.576 355.411 199.255C355.236 198.955 355.594 198.763 355.792 198.678C356.557 198.47 357.184 197.984 357.933 197.717C358.484 197.536 359.072 197.377 359.495 197.072C359.897 196.805 360.367 196.678 360.785 196.469C361.165 196.24 361.636 196.112 362.053 195.904C363.086 195.403 364.066 194.821 365.152 194.4C365.842 194.149 366.5 193.781 367.175 193.472C368.068 193.04 368.962 192.607 369.856 192.175C370.514 191.807 371.204 191.557 371.916 191.269C372.312 191.098 372.655 190.847 373.051 190.676C373.527 190.452 374.025 190.191 374.538 189.988C374.736 189.903 374.924 189.662 375.111 189.77C375.447 189.963 375.745 190.134 375.952 190.552C376.366 191.387 376.7 192.275 377.114 193.11C377.475 193.865 377.814 194.657 378.154 195.449C378.44 196.161 378.764 196.895 379.13 197.553C379.581 198.409 380.129 199.271 380.302 200.267C380.417 200.93 380.289 201.155 379.71 201.469C378.875 201.886 377.972 202.163 377.131 202.675C376.649 202.995 376.055 203.251 375.563 203.416C374.894 203.63 374.242 203.902 373.626 204.195C373.091 204.435 372.593 204.696 372.058 204.936C371.464 205.192 370.849 205.486 370.218 205.72C369.704 205.923 369.169 206.163 368.724 206.505C368.462 206.702 368.146 206.82 367.852 206.899C367.044 207.182 366.396 207.705 365.641 208.068C364.807 208.484 363.987 208.959 363.227 209.418C362.788 209.664 362.328 209.947 361.889 210.192C361.215 210.501 360.836 210.383 360.528 209.709C360.336 209.698 360.341 209.602 360.341 209.602ZM375.551 190.819C375.184 190.16 374.901 190.048 374.435 190.427C373.969 190.806 373.45 191.105 372.936 191.307C372.144 191.649 371.331 192.027 370.518 192.406C369.645 192.801 368.795 193.158 367.938 193.612C367.58 193.804 367.162 194.012 366.766 194.183C366.392 194.316 365.996 194.486 365.637 194.679C365.155 194.999 364.62 195.239 364.085 195.479C363.352 195.804 362.678 196.114 361.944 196.439C360.992 196.887 360.039 197.335 359.049 197.762C358.418 197.996 357.75 198.209 357.187 198.583C356.866 198.797 356.444 198.753 356.123 198.967C355.903 199.09 355.876 199.223 355.982 199.384C356.423 200.433 357.039 201.434 357.538 202.467C357.984 203.42 358.371 204.389 358.795 205.379C359.241 206.332 359.665 207.322 360.11 208.275C360.296 208.73 360.621 209.115 360.806 209.57C360.954 210.004 361.157 210.17 361.537 209.94C361.756 209.817 361.976 209.695 362.217 209.535C362.822 209.086 363.481 208.718 364.139 208.35C364.856 207.965 365.595 207.544 366.312 207.159C367.169 206.706 368.047 206.215 368.919 205.82C369.454 205.58 370.026 205.362 370.503 205.138C371.712 204.588 372.906 203.98 374.131 203.489C374.784 203.218 375.42 202.887 376.073 202.615C377.224 202.081 378.353 201.585 379.503 201.052C379.701 200.967 379.899 200.881 379.799 200.624C379.603 200.014 379.407 199.404 379.131 198.848C378.871 198.35 378.552 197.868 378.372 197.317C378.007 196.31 377.443 195.39 377.056 194.421C376.808 193.73 376.478 193.093 376.171 192.419C375.953 191.846 375.677 191.29 375.551 190.819Z" fill="#BBB0DB"/>
<path d="M390.758 223.293C390.041 223.678 389.388 223.95 388.757 224.184C387.971 224.429 387.232 224.851 386.446 225.096C385.895 225.277 385.338 225.554 384.91 225.955C384.663 226.211 384.225 226.109 383.948 225.9C383.303 225.381 383.354 224.514 382.848 223.925C382.758 223.823 382.667 223.721 382.636 223.604C382.588 223.427 382.354 223.143 382.84 223.074C383.209 223.037 383.515 222.765 383.799 222.53C383.959 222.423 384.104 222.258 384.349 222.349C384.398 222.178 384.59 222.189 384.73 222.119C385.249 221.82 385.8 221.639 386.335 221.399C387.009 221.09 387.774 220.882 388.363 220.375C388.567 220.193 388.92 220.097 389.214 220.018C389.412 219.932 389.589 219.884 389.771 219.74C390.092 219.527 390.22 219.65 390.374 219.987C390.459 220.185 390.602 220.367 390.687 220.565C390.985 221.084 391.319 221.625 391.44 222.192C391.55 222.952 391.433 222.984 390.758 223.293ZM383.813 222.937C383.021 223.278 383.037 223.337 383.404 223.995C383.526 224.215 383.642 224.53 383.722 224.825C383.927 225.59 384.322 225.767 385.002 225.361C385.559 225.084 386.078 224.785 386.651 224.567C387.164 224.364 387.752 224.204 388.176 223.9C388.716 223.564 389.358 223.484 389.861 223.126C390.043 222.982 390.38 222.828 390.675 222.748C390.851 222.7 391.092 222.54 391.007 222.342C390.869 222.063 390.849 221.753 390.689 221.512C390.439 221.169 390.248 220.811 390.159 220.361C390.111 220.185 389.983 220.061 389.807 220.109C389.475 220.168 389.107 220.205 388.903 220.386C388.314 220.894 387.592 221.026 386.955 221.357C386.757 221.443 386.575 221.587 386.339 221.651C386.083 221.752 385.789 221.832 385.532 221.933C384.873 222.301 384.402 222.777 383.813 222.937Z" fill="#BBB0DB"/>
<path d="M369.392 186.932C369.043 187.28 368.53 187.482 368.128 187.749C367.485 188.176 366.795 188.427 366.1 188.773C364.649 189.483 363.205 190.096 361.77 190.865C361.053 191.249 360.373 191.655 359.693 192.06C358.713 192.642 357.659 193.181 356.679 193.763C355.501 194.43 354.34 195.156 353.199 195.844C352.899 196.02 352.589 196.041 352.327 196.239C352.188 196.308 351.98 196.238 351.873 196.078C351.804 195.939 352.018 195.912 352.098 195.859C352.896 195.421 353.752 194.968 354.587 194.552C354.866 194.413 355.069 194.231 355.348 194.093C356.884 193.233 358.458 192.396 359.957 191.515C360.856 190.987 361.74 190.399 362.692 189.951C363.564 189.556 364.352 188.964 365.314 188.671C365.667 188.575 365.994 188.265 366.39 188.095C367.086 187.748 367.819 187.422 368.515 187.076C368.874 186.883 369.211 186.729 369.569 186.537C369.708 186.467 369.906 186.382 369.975 186.521C370.044 186.66 369.846 186.746 369.745 186.836C369.627 186.868 369.563 186.981 369.392 186.932Z" fill="#BBB0DB"/>
<path d="M366.262 212.605C366.909 212.429 367.397 212.013 367.991 211.757C368.526 211.517 369.029 211.159 369.527 210.898C370.223 210.551 370.903 210.145 371.524 209.755C372.065 209.419 372.728 209.302 373.253 208.907C374.062 208.277 375.008 207.925 375.902 207.493C376.378 207.269 376.892 207.066 377.39 206.805C377.588 206.72 377.855 206.773 378.058 206.592C378.139 206.538 378.31 206.587 378.363 206.667C378.416 206.747 378.277 206.817 378.196 206.87C377.501 207.217 376.783 207.601 376.088 207.948C375.194 208.38 374.3 208.812 373.422 209.303C372.646 209.703 371.923 210.184 371.185 210.605C370.804 210.835 370.408 211.006 370.013 211.176C369.097 211.646 368.166 212.057 367.251 212.526C366.914 212.681 366.604 212.702 366.262 212.605Z" fill="#BBB0DB"/>
<path d="M388.021 210.772C387.77 210.777 387.738 210.66 387.632 210.499C387.192 209.45 386.693 208.417 386.194 207.384C385.578 206.035 384.904 204.702 384.251 203.332C384.013 202.796 383.796 202.224 383.535 201.726C383.185 201.126 383.069 200.463 382.617 199.954C382.526 199.852 382.591 199.74 382.559 199.622C382.506 199.542 382.303 199.376 382.443 199.307C382.603 199.2 382.8 199.462 382.816 199.521C383.219 200.549 383.76 201.507 384.244 202.481C384.727 203.455 385.086 204.558 385.628 205.516C386.117 206.394 386.429 207.32 386.881 208.176C387.295 209.011 387.628 209.9 388.021 210.772Z" fill="#BBB0DB"/>
<path d="M369.549 214.145C372.064 213.051 374.531 211.781 377.115 210.827C374.748 212.354 372.271 213.469 369.549 214.145Z" fill="#BBB0DB"/>
<path d="M377.81 231.83C374.808 233.34 371.742 234.614 368.66 235.83C371.641 234.357 374.675 232.965 377.81 231.83Z" fill="#BBB0DB"/>
<path d="M382.556 229.878C382.116 230.472 381.565 230.653 380.983 230.716C380.828 230.727 380.704 230.855 380.602 230.946C380.522 230.999 380.426 230.994 380.373 230.913C380.32 230.833 380.4 230.78 380.421 230.742C380.443 230.705 380.48 230.726 380.502 230.689C381.17 230.476 381.722 229.947 382.556 229.878Z" fill="#BBB0DB"/>
<path d="M371.736 185.79C372.041 185.518 372.447 185.503 372.731 185.268C372.833 185.177 372.988 185.166 373.057 185.305C373.142 185.503 372.95 185.493 372.869 185.546C372.613 185.647 372.356 185.749 372.099 185.85C372.019 185.903 371.842 185.951 371.736 185.79Z" fill="#BBB0DB"/>
<path d="M368.242 219.963C368.433 220.322 368.267 220.525 368.063 220.706C367.94 220.835 367.855 220.636 367.839 220.578C367.701 220.299 367.852 220.037 368.093 219.877C368.136 219.802 368.269 219.829 368.242 219.963Z" fill="#BBB0DB"/>
<path d="M380.26 227.912C380.116 227.73 379.988 227.607 379.882 227.446C379.829 227.366 379.701 227.242 379.787 227.093C379.851 226.981 379.985 227.007 380.118 227.034C380.23 227.099 380.401 227.147 380.39 227.34C380.378 227.532 380.389 227.687 380.26 227.912Z" fill="#BBB0DB"/>
<path d="M379.476 215.966C379.652 215.918 379.856 215.736 379.903 215.913C379.972 216.052 379.822 216.314 379.661 216.421C379.522 216.49 379.346 216.538 379.261 216.34C379.198 216.105 379.358 215.998 379.476 215.966Z" fill="#BBB0DB"/>
<path d="M389.087 212.978C389.359 213.283 389.556 213.545 389.496 213.909C389.358 213.631 388.963 213.454 389.087 212.978Z" fill="#BBB0DB"/>
<path d="M384.178 207.868C384.327 207.954 384.531 207.772 384.572 208.045C384.62 208.222 384.459 208.328 384.357 208.419C384.277 208.473 384.171 208.312 384.155 208.253C384.086 208.114 384.15 208.002 384.178 207.868Z" fill="#BBB0DB"/>
<path d="M366.779 224.497C366.897 224.465 367.009 224.53 367.003 224.626C367.013 224.781 367.018 225.033 366.857 225.139C366.718 225.209 366.729 225.016 366.676 224.936C366.554 224.716 366.714 224.61 366.779 224.497Z" fill="#BBB0DB"/>
<path d="M388.676 230.807C388.65 230.593 388.864 230.566 388.982 230.534C389.747 230.327 390.395 229.803 391.229 229.735C391.545 229.27 392.133 229.458 392.518 229.132C392.701 228.988 392.93 229.02 393.144 228.994C393.117 229.127 392.999 229.159 392.919 229.213C392.186 229.538 391.415 229.842 390.645 230.146C390.131 230.348 389.618 230.551 389.083 230.791C388.906 230.839 388.767 230.908 388.676 230.807Z" fill="#BBB0DB"/>
<path d="M369.435 239.062C369.451 239.121 369.488 239.142 369.504 239.201C369.065 239.447 368.536 239.59 368.128 239.953C368.026 240.044 367.856 239.996 367.701 240.006C368.241 239.67 368.723 239.35 369.264 239.013C369.323 238.998 369.398 239.04 369.435 239.062Z" fill="#BBB0DB"/>
<path d="M379.67 234.988C379.076 235.244 378.445 235.479 377.83 235.772C377.814 235.713 377.814 235.713 377.798 235.655C378.392 235.399 379.007 235.105 379.639 234.871C379.617 234.908 379.654 234.93 379.67 234.988Z" fill="#BBB0DB"/>
<path d="M388.676 230.807C388.655 230.844 388.692 230.865 388.676 230.807C388.216 231.089 387.681 231.329 387.151 231.473C387.553 231.206 388.045 231.041 388.447 230.774C388.527 230.721 388.618 230.823 388.676 230.807Z" fill="#BBB0DB"/>
<path d="M385.626 232.14C385.953 231.83 386.349 231.659 386.799 231.569C386.487 231.938 385.969 231.889 385.626 232.14Z" fill="#BBB0DB"/>
<path d="M361.178 200.279C361.917 199.857 362.576 199.489 363.271 199.142C363.689 198.934 364.128 198.689 364.583 198.502C365.037 198.315 365.46 198.011 365.937 197.787C366.707 197.483 367.393 196.981 368.163 196.677C369.447 196.171 370.7 195.546 371.999 195.099C372.492 194.934 372.909 194.726 373.364 194.539C373.54 194.491 373.615 194.534 373.721 194.695C373.881 194.936 373.635 194.844 373.576 194.86C373.159 195.068 372.757 195.335 372.271 195.404C372.057 195.431 371.763 195.51 371.559 195.692C371.254 195.964 370.757 195.878 370.414 196.129C369.852 196.503 369.205 196.679 368.59 196.972C368.151 197.217 367.69 197.5 367.166 197.548C366.835 197.606 366.626 197.884 366.31 198.001C365.32 198.428 364.346 198.914 363.372 199.399C362.815 199.676 362.222 199.932 361.686 200.172C361.43 200.274 361.157 200.316 360.953 200.498C360.873 200.551 360.718 200.562 360.702 200.503C360.633 200.364 360.751 200.332 360.868 200.3C360.98 200.364 361.12 200.295 361.178 200.279Z" fill="#BBB0DB"/>
<path d="M362.71 202.453C365.89 200.547 369.128 198.973 372.578 197.721C372.342 198.132 371.952 198.207 371.652 198.383C370.956 198.73 370.298 199.098 369.623 199.407C368.992 199.642 368.393 199.994 367.799 200.25C367.322 200.474 366.766 200.751 366.284 201.072C365.882 201.339 365.347 201.579 364.796 201.76C364.384 201.872 364.02 202.16 363.603 202.368C363.33 202.411 363.105 202.63 362.71 202.453Z" fill="#BBB0DB"/>
<path d="M361.967 207.549C362.03 207.785 362.19 208.026 361.89 208.202C361.67 208.325 361.468 208.159 361.42 207.982C361.336 207.784 361.502 207.581 361.663 207.474C361.78 207.442 361.898 207.41 361.967 207.549Z" fill="#BBB0DB"/>
<path d="M360.661 204.809C360.571 204.707 360.378 204.696 360.331 204.52C360.267 204.284 360.263 204.033 360.504 203.873C360.606 203.782 360.749 203.964 360.744 204.06C360.711 204.29 361.004 204.558 360.661 204.809Z" fill="#BBB0DB"/>
<path d="M375.657 199.191C375.496 199.297 375.421 199.254 375.352 199.115C375.23 198.896 375.385 198.885 375.524 198.816C375.706 198.672 375.754 198.848 375.844 198.95C375.988 199.132 375.625 199.073 375.657 199.191Z" fill="#BBB0DB"/>
</g>
</g>
</g>
<g clip-path="url(#clip6_1040_1503)">
<g clip-path="url(#clip7_1040_1503)">
<g clip-path="url(#clip8_1040_1503)">
<path d="M583.277 47.6523C583.477 46.0523 584.477 44.7523 585.377 43.6523C586.177 42.6523 586.777 41.3523 587.477 40.2523C588.177 39.1523 589.177 38.1523 589.477 36.8523C589.577 36.4523 590.177 36.0523 590.577 35.6523C591.077 35.1523 591.277 34.5523 591.877 34.2523C592.977 33.5523 592.177 32.7523 591.777 32.0523C590.877 30.6523 589.377 29.7523 588.277 28.4523C587.477 27.5523 586.777 26.4523 586.077 25.3523C585.877 25.0523 585.677 24.7523 585.477 24.5523C584.877 24.0523 584.477 23.7523 585.077 22.8523C585.677 21.9523 586.077 22.0522 587.077 22.2522C588.177 22.4522 589.277 23.0523 590.177 22.9522C591.777 22.6522 593.177 23.4523 594.577 23.7523C595.477 23.9523 596.377 24.5523 597.277 24.8523C597.877 25.0523 598.177 24.9523 598.577 24.4523C599.177 23.6523 599.777 22.8523 600.377 22.1523C600.777 21.6523 601.277 21.0522 601.877 20.5522C602.777 19.8523 603.577 19.0522 603.777 17.8523C603.777 17.6523 603.977 17.3523 604.077 17.3523C605.477 17.2523 605.777 15.7522 606.977 15.2522C607.677 14.9523 608.377 14.1523 608.777 13.4523C609.077 12.9523 609.477 12.9523 609.777 13.0523C610.277 13.1523 610.677 13.3523 610.677 13.9523C610.677 14.6523 610.777 15.2522 610.677 15.9523C610.477 17.4523 610.577 18.9523 610.377 20.5522C610.077 22.1523 610.277 23.8523 610.177 25.5523C610.077 27.0523 610.577 27.6523 611.777 28.1523C613.577 28.9523 615.277 29.8523 616.877 30.8523C617.877 31.4523 618.977 31.7523 619.877 32.5523C620.377 32.9523 621.077 33.2523 621.677 33.5523C623.677 34.3523 625.077 35.9523 626.877 36.8523C627.677 37.2523 627.577 37.6523 626.877 38.1523C625.577 39.1523 623.977 38.6523 622.577 38.6523C621.177 38.6523 619.877 38.9523 618.477 39.1523C616.977 39.3523 615.477 39.6523 613.977 39.8523C612.977 39.9523 612.077 40.4523 610.977 40.3523C610.377 40.3523 610.177 41.2523 610.177 41.4523C610.177 44.1523 609.677 46.7523 609.377 49.3523C609.177 51.5523 608.977 53.7523 608.877 55.9523C608.877 56.3523 608.977 56.9523 608.977 57.3523C608.977 57.8523 609.077 58.5523 608.477 58.6523C607.977 58.7523 607.477 58.7523 606.977 58.3523C605.977 57.6523 605.477 56.4523 605.377 55.6523C605.177 54.0523 604.077 53.0523 603.577 51.6523C603.277 50.9523 603.277 50.1523 602.877 49.4523C602.477 48.6523 602.377 47.7523 601.577 47.2523C601.377 47.1523 601.177 46.9523 601.177 46.5523C601.477 44.8523 599.977 43.7523 599.777 42.2523C599.777 42.0523 599.577 41.9523 599.477 42.0523C598.277 43.1523 596.377 43.0523 595.077 44.1523C594.177 44.8523 592.777 44.9523 591.777 45.7523C589.977 46.9523 587.877 47.5523 586.077 48.5523C585.277 48.9523 584.577 49.2523 583.777 49.5523C583.277 49.7523 582.777 49.9523 582.477 49.6523C582.277 49.4523 582.577 48.8523 582.677 48.4523C582.777 48.1523 583.277 48.0523 583.277 47.6523ZM611.577 29.8523C610.777 29.3523 609.777 28.6523 608.777 27.9523C608.377 27.6523 608.077 27.4523 608.177 26.7523C608.377 25.8523 608.477 24.9523 608.577 24.0523C608.577 23.5523 607.977 23.4523 608.377 22.8523C608.977 21.8523 608.177 20.5522 608.977 19.5522C609.077 19.4523 608.877 19.2522 608.877 19.1522C608.577 18.5522 608.477 17.9523 608.877 17.3523C608.977 17.2523 609.277 16.5523 608.777 16.3523C608.277 16.1523 608.077 16.5523 607.877 16.8523C606.977 17.8523 605.877 18.6523 605.077 19.7523C604.277 20.7523 603.177 21.2522 602.477 22.2522C602.277 22.6522 602.277 23.2523 601.777 23.3523C600.777 23.6523 600.277 24.4523 599.677 25.1523C598.377 26.6523 597.277 26.8523 595.477 26.1523C594.377 25.7523 593.277 25.2523 592.177 25.4523C591.077 25.6523 590.377 23.5523 589.177 25.0523C589.177 25.0523 589.077 24.9523 588.977 24.9523C588.777 24.8523 588.477 24.6523 588.377 24.8523C588.177 25.1523 588.477 25.3523 588.577 25.5523C588.777 25.7523 588.877 25.9523 589.077 26.2523C590.177 28.3523 592.177 29.6523 593.577 31.4523C593.777 31.7523 594.477 31.6523 594.377 32.2523C594.377 32.8523 594.477 33.5523 594.177 33.8523C592.977 35.0523 592.477 36.6523 591.377 37.8523C589.177 40.2523 588.177 43.4523 586.077 45.8523C585.977 46.0523 585.877 46.2523 585.977 46.3523C586.177 46.6523 586.277 46.3523 586.477 46.2523C588.177 45.6523 589.577 44.6523 591.077 43.8523C592.377 43.1523 593.577 42.2523 594.877 41.7523C595.877 41.3523 596.877 40.7523 598.077 40.5523C599.077 40.3523 599.877 39.2523 601.077 40.3523C601.277 40.5523 601.477 40.2523 601.377 40.7523C601.277 41.4523 601.177 42.3523 602.177 42.5523C602.677 42.6523 602.377 42.7523 602.377 42.9523C602.377 44.1523 602.477 45.3523 603.777 45.9523C603.977 46.0523 603.977 46.3523 603.877 46.4523C603.677 46.8523 603.877 47.1523 603.977 47.4523C604.177 49.0523 605.477 50.2523 605.977 51.8523C606.177 52.4523 606.377 53.2523 606.877 53.8523C606.977 53.9523 606.977 54.1523 607.177 54.0523C607.277 54.0523 607.377 53.9523 607.377 53.8523C607.177 52.9523 607.377 52.1523 607.577 51.2523C608.077 49.4523 607.777 47.5523 608.077 45.6523C608.377 44.1523 608.377 42.4523 608.277 40.8523C608.277 40.1523 608.477 39.5523 609.277 39.2523C610.977 38.5523 612.777 38.4523 614.577 38.1523C616.077 37.8523 617.477 37.6523 618.977 37.5523C619.377 37.5523 619.577 37.2523 620.177 37.2523C621.277 37.3523 622.377 37.5523 623.477 37.2523C623.677 37.2523 623.977 37.2523 623.877 36.9523C623.877 36.7523 623.677 36.6523 623.477 36.5523C622.077 35.6523 620.577 35.0523 619.077 34.3523C618.277 33.9523 617.777 33.1523 616.977 32.8523C615.477 31.9523 613.677 30.9523 611.577 29.8523Z" fill="#BBB0DB"/>
<path d="M603.377 31.1522C603.277 31.4522 603.077 31.5522 602.677 31.4522C602.277 31.2522 601.777 29.5522 602.077 29.2522C602.277 28.9522 602.677 29.0522 602.977 29.1522C603.377 29.1522 603.577 30.7522 603.377 31.1522Z" fill="#BBB0DB"/>
<path d="M604.478 36.0524C605.078 35.1524 605.678 35.2524 606.078 36.1524C605.578 36.6524 604.978 36.5524 604.478 36.0524Z" fill="#BBB0DB"/>
</g>
</g>
</g>
<g clip-path="url(#clip9_1040_1503)">
<g clip-path="url(#clip10_1040_1503)">
<path d="M485.136 -87.9198C435.83 -115.934 392.043 -117.726 357.16 -110.9C307.112 -101.098 267.191 -72.6968 269.806 -15.5089C270.308 -4.68036 272.639 7.77354 281.212 20.933C294.59 41.4636 318.469 56.9875 339.267 67.6771C391.08 94.321 439.998 106.949 486.833 116.767C530.455 125.916 573.085 132.963 614.723 137.909C647.223 141.796 679.644 144.266 703.844 135.571C707.302 134.32 710.777 132.436 709.939 127.732C709.251 124.636 707.274 121.091 704.419 117.831C692.811 104.07 676.129 99.079 663.792 97.784C601.753 91.463 563.636 122.532 541.662 164.363C534.616 177.807 529.059 193.975 537.927 216.356C549.81 246.422 585.191 278.464 616.621 294.393C648.05 310.323 676.155 313.507 702.243 314.884C768.022 318.28 828.135 312.23 881.287 296.864" stroke="#BBB0DB" stroke-width="2" stroke-miterlimit="10"/>
</g>
</g>
</g>
<defs>
<clipPath id="clip0_1040_1503">
<rect width="742" height="289" fill="white"/>
</clipPath>
<clipPath id="clip1_1040_1503">
<rect width="65" height="48" fill="white" transform="translate(102.61 52)"/>
</clipPath>
<clipPath id="clip2_1040_1503">
<rect width="65" height="48" fill="white" transform="translate(102.61 52)"/>
</clipPath>
<clipPath id="clip3_1040_1503">
<rect width="58" height="62" fill="white" transform="translate(340 182)"/>
</clipPath>
<clipPath id="clip4_1040_1503">
<rect width="58" height="62" fill="white" transform="translate(340 182)"/>
</clipPath>
<clipPath id="clip5_1040_1503">
<rect width="58" height="62" fill="white" transform="translate(340 182)"/>
</clipPath>
<clipPath id="clip6_1040_1503">
<rect width="46" height="46" fill="white" transform="translate(582.41 13)"/>
</clipPath>
<clipPath id="clip7_1040_1503">
<rect width="46" height="46" fill="white" transform="translate(582.41 13)"/>
</clipPath>
<clipPath id="clip8_1040_1503">
<rect width="46" height="46" fill="white" transform="translate(582.41 13)"/>
</clipPath>
<clipPath id="clip9_1040_1503">
<rect width="514" height="300" fill="white" transform="translate(268 -11)"/>
</clipPath>
<clipPath id="clip10_1040_1503">
<rect width="514" height="300" fill="white" transform="translate(268 -11)"/>
</clipPath>
</defs>
</svg>
