<svg width="94" height="90" viewBox="0 0 94 90" fill="none" xmlns="http://www.w3.org/2000/svg">
<g clip-path="url(#clip0_840_1424)">
<path d="M77.4138 35.9694L59.7118 23.0167C59.4201 22.8019 59.0478 22.7283 58.6963 22.816L37.4309 28.2099C36.7799 28.3758 36.3867 29.0379 36.5526 29.6887C36.6221 29.9616 36.7843 30.202 37.0113 30.3686L42.6422 34.4794L41.426 40.6455C40.7631 44.0873 46.2908 49.536 53.74 50.9832C55.0466 51.2354 56.3742 51.3617 57.7048 51.3603C59.7448 51.373 61.7735 51.0568 63.7129 50.4238C66.6926 49.4327 68.681 47.7785 69.0277 46.009L70.244 39.861L77 38.1523C77.6509 37.9864 78.0441 37.3243 77.8782 36.6734C77.8087 36.4006 77.6465 36.1602 77.4196 35.9936L77.4138 35.9694ZM66.6563 45.5409C66.5164 46.2524 65.1969 47.3652 62.9529 48.1132C60.1195 49.0001 57.1089 49.1633 54.1962 48.5875C47.3551 47.2557 43.5362 42.6281 43.8585 41.1079L44.8376 36.0668L54.7132 43.3153C54.9212 43.4686 55.1724 43.5516 55.4308 43.5525C55.5337 43.5532 55.6361 43.5388 55.7348 43.51L67.6293 40.4999L66.6563 45.5409ZM55.7105 41.0166L40.5383 29.9247L58.7388 25.3153L73.8927 36.401L55.7105 41.0166Z" fill="#0284E2"/>
<path d="M29.8113 51.5913C29.4391 51.8061 29.2079 52.2014 29.2031 52.6312V74.3283C29.2079 74.758 29.4391 75.1532 29.8113 75.3682C29.9941 75.4813 30.2044 75.5422 30.4194 75.5445C30.6159 75.5463 30.81 75.5004 30.9849 75.4107L51.7212 64.556C52.3157 64.2432 52.544 63.5078 52.2313 62.9135C52.1167 62.6958 51.9388 62.518 51.7212 62.4034L31.0031 51.5488C30.6258 51.3538 30.174 51.3699 29.8113 51.5913ZM31.6357 54.6318L48.5348 63.4797L31.654 72.3214L31.6357 54.6318Z" fill="#0284E2"/>
<path d="M74.2638 82.3313H68.0186C68.1268 81.9911 68.1821 81.6362 68.1828 81.2793V53.1423C68.1828 52.4706 67.6382 51.926 66.9665 51.926C66.2948 51.926 65.7503 52.4706 65.7503 53.1423V81.2792C65.7402 81.8702 65.253 82.3412 64.662 82.3311C64.6618 82.3311 64.6622 82.3311 64.662 82.3311H10.8933C10.3023 82.3413 9.81493 81.8705 9.80477 81.2795C9.80477 81.2793 9.80477 81.2796 9.80477 81.2795V44.4645C9.81478 43.8735 10.302 43.4025 10.893 43.4126H37.7775C38.4492 43.4126 38.9938 42.868 38.9938 42.1963C38.9938 41.5246 38.4492 40.98 37.7775 40.98H10.8933C8.9602 40.9733 7.38573 42.5314 7.37238 44.4644V81.279C7.3731 81.6361 7.4284 81.9908 7.53653 82.331H1.29146C0.619759 82.331 0.0751953 82.8756 0.0751953 83.5473V83.8513C0.0751953 86.5878 2.22791 89.6283 5.11633 89.6283H70.4388C73.3273 89.6283 75.48 86.5878 75.48 83.8513V83.5473C75.48 82.8759 74.9354 82.3313 74.2638 82.3313ZM70.4388 87.1961H5.11633C4.06436 87.1961 2.9941 86.0772 2.63531 84.7637H72.9199C72.5611 86.0772 71.4908 87.1961 70.4388 87.1961Z" fill="white"/>
<path d="M94 14.2032C93.4937 14.5801 93.2405 14.957 92.9873 15.0827C91.7215 15.5853 90.4557 16.0878 89.1899 16.5904C87.2911 17.2186 86.1519 18.4751 85.8987 20.4854C85.6456 22.1188 85.3924 23.7522 85.0127 25.3856C84.8861 25.8881 84.5063 26.642 84.1266 26.7677C83.3671 26.8933 83.3671 26.0138 83.2405 25.5112C82.7342 24.0035 82.2278 22.3701 81.8481 20.8623C81.2152 18.7264 79.8228 17.5956 77.5443 17.5956C76.6582 17.5956 75.8987 17.4699 75.0127 17.3443C74.5063 17.3443 74.2532 17.093 74 16.8417C74.2532 16.5904 74.3797 16.2135 74.6329 16.0878C75.8987 15.5853 77.2911 15.0827 78.557 14.7057C79.8228 14.3288 80.7089 13.4493 80.962 12.1928C81.4684 10.1825 81.8481 8.1722 82.3544 6.28753C82.6076 5.6593 82.3544 4.77979 83.2405 4.77979C84.1266 4.77979 84 5.53366 84.1266 6.03624C84.5063 7.79527 84.8861 9.42865 85.3924 11.1877C86.0253 13.4493 86.5316 13.8262 88.9367 13.8262C90.2025 13.8262 91.5949 13.7006 92.8608 13.7006C92.9873 13.7006 93.3671 13.9519 94 14.2032Z" fill="#434087"/>
<path d="M77 5.49147C76.7468 5.67993 76.6203 5.86841 76.4937 5.93123C75.8608 6.18252 75.2278 6.43381 74.5949 6.6851C73.6456 6.99921 73.0759 7.62744 72.9494 8.6326C72.8228 9.44929 72.6962 10.266 72.5063 11.0827C72.443 11.334 72.2532 11.7109 72.0633 11.7737C71.6835 11.8366 71.6835 11.3968 71.6203 11.1455C71.3671 10.3916 71.1139 9.57493 70.9241 8.82106C70.6076 7.75308 69.9114 7.18767 68.7722 7.18767C68.3291 7.18767 67.9494 7.12486 67.5063 7.06204C67.2532 7.06204 67.1266 6.93639 67 6.81075C67.1266 6.6851 67.1899 6.49662 67.3165 6.4338C67.9494 6.18252 68.6456 5.93122 69.2785 5.74275C69.9114 5.5543 70.3544 5.11454 70.481 4.48631C70.7342 3.48116 70.9241 2.476 71.1772 1.53365C71.3038 1.21954 71.1772 0.779785 71.6203 0.779785C72.0633 0.779785 72 1.15672 72.0633 1.40801C72.2532 2.28753 72.443 3.10422 72.6962 3.98374C73.0127 5.11454 73.2658 5.30301 74.4684 5.30301C75.1013 5.30301 75.7975 5.24018 76.4304 5.24018C76.4937 5.24018 76.6835 5.36583 77 5.49147Z" fill="#6663A9"/>
</g>
<defs>
<clipPath id="clip0_840_1424">
<rect width="94" height="89" fill="white" transform="translate(0 0.779785)"/>
</clipPath>
</defs>
</svg>
