<svg width="94" height="91" viewBox="0 0 94 91" fill="none" xmlns="http://www.w3.org/2000/svg">
<g clip-path="url(#clip0_840_1432)">
<path d="M66.8667 23.4126H1.13333C0.50745 23.4126 0 23.9201 0 24.5459V69.8793C0 70.5052 0.50745 71.0126 1.13333 71.0126H21.5979C21.6319 71.39 21.6875 71.7617 21.7543 72.1301L15.538 79.5387C15.1354 80.0179 15.1976 80.7328 15.6768 81.1354C15.8118 81.2489 15.9716 81.3292 16.1432 81.3701L22.9863 83.0044L25.7845 89.4644C26.0332 90.0387 26.7005 90.3028 27.2748 90.054C27.4366 89.984 27.5797 89.8772 27.693 89.7421L33.8991 82.3459C33.9331 82.3459 33.966 82.3459 34 82.3459C34.034 82.3459 34.0669 82.3459 34.1009 82.3459L40.307 89.7421C40.709 90.2218 41.4239 90.2847 41.9036 89.8826C42.0386 89.7694 42.1454 89.6262 42.2155 89.4644L45.0137 83.0044L51.8568 81.3701C52.4657 81.2251 52.8418 80.6139 52.6967 80.005C52.6558 79.8335 52.5755 79.6737 52.462 79.5387L46.2457 72.1301C46.3125 71.7617 46.3681 71.39 46.4021 71.0126H66.8667C67.4926 71.0126 68 70.5052 68 69.8793V24.5459C68 23.9199 67.4926 23.4126 66.8667 23.4126ZM27.1354 86.8793L24.8404 81.5866C24.6986 81.2594 24.411 81.018 24.0641 80.9349L18.4541 79.5942L22.5227 74.7447C22.5443 74.7945 22.5726 74.8399 22.5941 74.8897C22.7415 75.2297 22.9013 75.5527 23.0781 75.8735C23.1506 76.0072 23.2277 76.1387 23.3047 76.269C23.4604 76.5281 23.625 76.782 23.7989 77.0306C23.9201 77.204 24.0471 77.3706 24.1774 77.5406C24.3293 77.7333 24.4857 77.9214 24.65 78.1073C24.8143 78.2931 25.0059 78.4983 25.1951 78.6864C25.3345 78.8258 25.4785 78.9607 25.6258 79.0933C25.7482 79.2066 25.8581 79.3256 25.9862 79.4333C26.1143 79.5409 26.2344 79.6135 26.3568 79.7087C26.4123 79.7517 26.4599 79.8016 26.5166 79.8435C26.6186 79.9206 26.7263 79.9875 26.8305 80.0611C26.9937 80.1745 27.1547 80.2969 27.3235 80.4011C27.6454 80.6074 27.9775 80.7955 28.3141 80.9678C28.4433 81.0335 28.5747 81.0936 28.7062 81.1548C29.0084 81.2969 29.3125 81.4261 29.6185 81.5424C29.7069 81.5753 29.7942 81.6127 29.8826 81.6433C30.3119 81.7941 30.7493 81.9209 31.1927 82.0229L31.2052 82.0263L27.1354 86.8793ZM36.1284 79.839C35.6086 79.9488 35.0812 80.0182 34.5508 80.0464H34.5361C34.357 80.0555 34.1779 80.0679 33.9977 80.0679C33.8175 80.0679 33.6385 80.0555 33.4594 80.0464H33.4447C32.9154 80.0181 32.3891 79.9491 31.8705 79.8401L31.7753 79.8209C31.5735 79.7767 31.3741 79.7223 31.1769 79.6656C31.0941 79.6418 31.0103 79.6203 30.9287 79.5942C30.787 79.55 30.6476 79.4979 30.5082 79.448C30.3688 79.3981 30.2362 79.3494 30.1025 79.2939C30.0197 79.2587 29.9381 79.2213 29.8565 79.1805C29.6707 79.0967 29.4859 79.0117 29.3057 78.9176L29.2151 78.8677C28.7479 78.6178 28.3008 78.3321 27.8777 78.0132C27.642 77.8375 27.4244 77.6437 27.2102 77.4522C26.9569 77.2262 26.7151 76.9875 26.486 76.7371C26.3953 76.6396 26.2979 76.5467 26.2117 76.4458C25.8953 76.0735 25.6065 75.6784 25.3481 75.2637C25.3096 75.2025 25.2767 75.1379 25.2348 75.0745C24.9938 74.6719 24.7817 74.2525 24.6001 73.8199C24.5843 73.7813 24.5661 73.7428 24.5514 73.7065C24.3507 73.2107 24.1892 72.7 24.0686 72.1788C24.0686 72.1584 24.0527 72.1425 24.0471 72.1221C23.8825 71.3859 23.7996 70.6336 23.8 69.8793C23.7966 64.2459 28.3605 59.6766 33.9938 59.673C39.6271 59.6696 44.1965 64.2336 44.2 69.8668C44.2004 70.6298 44.1153 71.3904 43.9461 72.1345C43.9405 72.1537 43.9291 72.1707 43.9246 72.19C43.8042 72.7106 43.6431 73.221 43.4429 73.7166C43.4271 73.7563 43.4089 73.7959 43.3919 73.8299C43.2109 74.2599 42.9995 74.6765 42.7595 75.0766C42.7221 75.1401 42.6881 75.2069 42.6462 75.2704C42.3878 75.6845 42.0995 76.0792 41.7837 76.4513C41.6987 76.5511 41.6024 76.6417 41.5129 76.7392C41.2807 76.9919 41.0359 77.2329 40.7796 77.4611C40.5643 77.6527 40.3501 77.8465 40.1155 78.021C39.8809 78.1955 39.6712 78.3429 39.4423 78.4891L39.4287 78.497C39.2235 78.6273 39.0139 78.7475 38.8008 78.8608C38.7589 78.8835 38.7181 78.9073 38.6761 78.9288C38.505 79.0183 38.3361 79.0988 38.1559 79.177C38.0653 79.2178 37.9757 79.2597 37.8839 79.2971C37.757 79.3504 37.6278 79.3969 37.4986 79.4433C37.3694 79.4898 37.2096 79.5499 37.0623 79.5952C36.9841 79.6201 36.9047 79.6417 36.8254 79.6643C36.6248 79.721 36.4231 79.7777 36.2191 79.8207L36.1284 79.839ZM49.5459 79.5908L43.9359 80.9315C43.589 81.0146 43.3014 81.256 43.1596 81.5832L40.8646 86.8793L36.7948 82.0297H36.805C37.2501 81.928 37.6891 81.8009 38.1197 81.6489C38.2047 81.6195 38.2863 81.5843 38.3713 81.5537C38.6875 81.4336 38.9991 81.3021 39.3051 81.1559C39.4298 81.0981 39.5545 81.0426 39.6769 80.9791C40.0169 80.8023 40.3569 80.6108 40.6833 80.4011C40.8408 80.3014 40.9915 80.1892 41.1445 80.0815C41.2579 80.0033 41.3712 79.9319 41.4845 79.8492C41.5446 79.8039 41.5979 79.7506 41.6568 79.7041C41.7701 79.6112 41.9016 79.533 42.0172 79.4355C42.1328 79.3381 42.2507 79.2089 42.3708 79.1023C42.5204 78.9663 42.6677 78.8292 42.8105 78.6875C42.9971 78.501 43.1777 78.309 43.3523 78.1118C43.5166 77.9259 43.673 77.7378 43.826 77.5451C43.9563 77.3785 44.0833 77.2051 44.2045 77.0351C44.3791 76.7881 44.5445 76.5342 44.6975 76.2758C44.7769 76.1443 44.8539 76.0117 44.9242 75.8769C45.1003 75.5573 45.2608 75.2304 45.4059 74.8965C45.4263 74.8387 45.4557 74.7923 45.4773 74.7413L49.5459 79.5908ZM65.7333 68.7459H46.4089C45.7939 61.8921 39.7391 56.8345 32.8852 57.4496C26.8837 57.9882 22.1275 62.7444 21.5889 68.7459H2.26667V25.6793H65.7333V68.7459Z" fill="#0284E2"/>
<path d="M5.66653 27.9463C5.04065 27.9463 4.5332 28.4537 4.5332 29.0796V33.6129H6.79987V30.2129H10.1999V27.9463H5.66653Z" fill="white"/>
<path d="M62.3331 27.9463H57.7998V30.2129H61.1998V33.6129H63.4665V29.0796C63.4665 28.4536 62.959 27.9463 62.3331 27.9463Z" fill="white"/>
<path d="M61.1998 60.8125V64.2125H57.7998V66.4792H62.3331C62.959 66.4792 63.4665 65.9717 63.4665 65.3458V60.8125H61.1998Z" fill="white"/>
<path d="M6.79987 64.2125V60.8125H4.5332V65.3458C4.5332 65.9717 5.04065 66.4792 5.66653 66.4792H10.1999V64.2125H6.79987Z" fill="white"/>
<path d="M47.5999 35.8794H20.3999V38.146H47.5999V35.8794Z" fill="white"/>
<path d="M54.4001 42.6792H13.6001V44.9459H54.4001V42.6792Z" fill="white"/>
<path d="M34.0002 61.9463C29.6187 61.9463 26.0669 65.4981 26.0669 69.8796C26.0718 74.2589 29.6209 77.808 34.0002 77.8129C38.3817 77.8129 41.9335 74.2611 41.9335 69.8796C41.9335 65.4981 38.3817 61.9463 34.0002 61.9463ZM34.0002 75.5463C30.8707 75.5463 28.3335 73.0091 28.3335 69.8796C28.3372 66.7516 30.8722 64.2166 34.0002 64.2129C37.1298 64.2129 39.6669 66.75 39.6669 69.8796C39.6669 73.0091 37.1298 75.5463 34.0002 75.5463Z" fill="#0284E2"/>
<path d="M94 14.2032C93.4937 14.5801 93.2405 14.957 92.9873 15.0827C91.7215 15.5853 90.4557 16.0878 89.1899 16.5904C87.2911 17.2186 86.1519 18.4751 85.8987 20.4854C85.6456 22.1188 85.3924 23.7522 85.0127 25.3856C84.8861 25.8881 84.5063 26.642 84.1266 26.7677C83.3671 26.8933 83.3671 26.0138 83.2405 25.5112C82.7342 24.0035 82.2278 22.3701 81.8481 20.8623C81.2152 18.7264 79.8228 17.5956 77.5443 17.5956C76.6582 17.5956 75.8987 17.4699 75.0127 17.3443C74.5063 17.3443 74.2532 17.093 74 16.8417C74.2532 16.5904 74.3797 16.2135 74.6329 16.0878C75.8987 15.5853 77.2911 15.0827 78.557 14.7057C79.8228 14.3288 80.7089 13.4493 80.962 12.1928C81.4684 10.1825 81.8481 8.1722 82.3544 6.28753C82.6076 5.6593 82.3544 4.77979 83.2405 4.77979C84.1266 4.77979 84 5.53366 84.1266 6.03624C84.5063 7.79527 84.8861 9.42865 85.3924 11.1877C86.0253 13.4493 86.5316 13.8262 88.9367 13.8262C90.2025 13.8262 91.5949 13.7006 92.8608 13.7006C92.9873 13.7006 93.3671 13.9519 94 14.2032Z" fill="#434087"/>
<path d="M77 5.49147C76.7468 5.67993 76.6203 5.86841 76.4937 5.93123C75.8608 6.18252 75.2278 6.43381 74.5949 6.6851C73.6456 6.99921 73.0759 7.62744 72.9494 8.6326C72.8228 9.44929 72.6962 10.266 72.5063 11.0827C72.443 11.334 72.2532 11.7109 72.0633 11.7737C71.6835 11.8366 71.6835 11.3968 71.6203 11.1455C71.3671 10.3916 71.1139 9.57493 70.9241 8.82106C70.6076 7.75308 69.9114 7.18767 68.7722 7.18767C68.3291 7.18767 67.9494 7.12486 67.5063 7.06204C67.2532 7.06204 67.1266 6.93639 67 6.81075C67.1266 6.6851 67.1899 6.49662 67.3165 6.4338C67.9494 6.18252 68.6456 5.93122 69.2785 5.74275C69.9114 5.5543 70.3544 5.11454 70.481 4.48631C70.7342 3.48116 70.9241 2.476 71.1772 1.53365C71.3038 1.21954 71.1772 0.779785 71.6203 0.779785C72.0633 0.779785 72 1.15672 72.0633 1.40801C72.2532 2.28753 72.443 3.10422 72.6962 3.98374C73.0127 5.11454 73.2658 5.30301 74.4684 5.30301C75.1013 5.30301 75.7975 5.24018 76.4304 5.24018C76.4937 5.24018 76.6835 5.36583 77 5.49147Z" fill="#6663A9"/>
</g>
<defs>
<clipPath id="clip0_840_1432">
<rect width="94" height="90" fill="white" transform="translate(0 0.779785)"/>
</clipPath>
</defs>
</svg>
