<svg width="84" height="82" viewBox="0 0 84 82" fill="none" xmlns="http://www.w3.org/2000/svg">
<g clip-path="url(#clip0_840_1445)">
<mask id="mask0_840_1445" style="mask-type:luminance" maskUnits="userSpaceOnUse" x="0" y="19" width="62" height="63">
<path d="M62 19.7798H0V81.7798H62V19.7798Z" fill="white"/>
</mask>
<g mask="url(#mask0_840_1445)">
<path d="M24.8327 26.9159C24.6075 26.6906 24.295 26.561 23.9766 26.561C23.6581 26.561 23.3457 26.6905 23.1204 26.9159C22.8952 27.1411 22.7656 27.4535 22.7656 27.772C22.7656 28.0905 22.8952 28.4029 23.1204 28.628C23.3457 28.8534 23.6581 28.9829 23.9766 28.9829C24.295 28.9829 24.6075 28.8534 24.8327 28.628C25.0579 28.4029 25.1875 28.0905 25.1875 27.772C25.1875 27.4535 25.0579 27.1411 24.8327 26.9159Z" fill="#0284E2"/>
<path d="M19.5014 26.561H14.6367C13.9679 26.561 13.4258 27.1033 13.4258 27.772C13.4258 28.4407 13.9679 28.9829 14.6367 28.9829H19.5014C20.1702 28.9829 20.7124 28.4407 20.7124 27.772C20.7124 27.1033 20.1702 26.561 19.5014 26.561Z" fill="#0284E2"/>
<path d="M20.4727 33.3423H14.6367C13.9679 33.3423 13.4258 33.8846 13.4258 34.5532C13.4258 35.2219 13.9679 35.7642 14.6367 35.7642H20.4727C21.1415 35.7642 21.6836 35.2219 21.6836 34.5532C21.6836 33.8846 21.1415 33.3423 20.4727 33.3423Z" fill="#0284E2"/>
<path d="M61.5326 44.9816C61.5327 44.9812 61.5329 44.981 61.5331 44.9806L53.5409 38.7568C53.5352 38.7524 53.5291 38.7489 53.5234 38.7445V37.4595C53.5234 36.7908 52.9813 36.2486 52.3125 36.2486C51.6437 36.2486 51.1016 36.7908 51.1016 37.4595V53.8879C51.1016 53.8953 51.1025 53.9024 51.1027 53.9098L41.0828 63.9297L39.9226 62.8759C38.1093 61.2285 35.8997 60.1303 33.5317 59.6715L36.6758 56.5274C37.1487 56.0545 37.1487 55.2878 36.6758 54.8148L32.6082 50.7471L50.3344 43.1899C50.7044 43.0321 50.972 42.7009 51.0484 42.306C51.1248 41.9111 51.0002 41.504 50.7158 41.2196L44.9276 35.4313C45.4175 34.6317 45.6802 33.7109 45.6802 32.7494C45.6802 31.3745 45.1448 30.0821 44.1727 29.1098C43.2006 28.1377 41.908 27.6023 40.5331 27.6023C39.5716 27.6023 38.6508 27.865 37.8512 28.3549L32.063 22.5667C31.7784 22.2821 31.3715 22.1571 30.9763 22.2341C30.5813 22.3107 30.2502 22.5784 30.0925 22.9485L21.9319 42.1146L17.5396 46.5068C16.3054 47.741 15.6256 49.382 15.6256 51.1275C15.6256 52.8729 16.3054 54.5138 17.5396 55.748C18.7738 56.9822 20.4148 57.662 22.1603 57.662C23.9057 57.662 25.5467 56.9823 26.7809 55.748L27.2427 55.2862L31.3906 59.4341C31.2606 59.4304 31.1303 59.4277 30.9998 59.4277C27.6933 59.4277 24.5245 60.6521 22.0771 62.8755L20.9169 63.9294L10.897 53.9095C10.8971 53.9021 10.8981 53.8949 10.8981 53.8874V22.2017H24.459C25.1278 22.2017 25.6699 21.6594 25.6699 20.9907C25.6699 20.3221 25.1278 19.7798 24.459 19.7798H9.6875C9.0187 19.7798 8.47656 20.3221 8.47656 20.9907V38.551C8.46615 38.5589 8.45513 38.5657 8.44496 38.5739L0.45277 44.9919C0.452648 44.9916 0.452891 44.9921 0.45277 44.9919C0.176797 45.2138 0 45.5544 0 45.936V75.604C0 79.0093 2.77038 81.7798 6.17578 81.7798H55.8242C59.2296 81.7798 62 79.0093 62 75.604V45.936C62 45.5478 61.8167 45.2032 61.5326 44.9816ZM53.5234 41.8127L58.9635 46.049L53.5234 51.489V41.8127ZM40.5332 30.0245C41.2611 30.0245 41.9455 30.3079 42.4603 30.8227C42.975 31.3374 43.2584 32.0217 43.2584 32.7497C43.2584 33.05 43.2076 33.3419 43.1147 33.6186L39.6643 30.1681C39.941 30.0752 40.2329 30.0245 40.5332 30.0245ZM31.6185 25.5474L36.8922 30.821C36.8927 30.8215 36.8932 30.8221 36.8936 30.8227C36.8941 30.8233 36.8947 30.8237 36.8953 30.8242L42.4602 36.389L47.7361 41.665L45.1653 42.761L30.5235 28.1192L31.6185 25.5474ZM29.5006 30.5215L42.7638 43.7847L30.7629 48.9012L24.3889 42.5271L29.5006 30.5215ZM25.0686 54.0358C24.2919 54.8126 23.2591 55.2404 22.1605 55.2404C21.062 55.2404 20.0292 54.8126 19.2523 54.0358C18.4755 53.2591 18.0477 52.2263 18.0477 51.1277C18.0477 50.0291 18.4755 48.9963 19.2523 48.2195L22.9543 44.5176L28.7703 50.3342L25.0686 54.0358ZM28.9555 53.5739L30.4827 52.0468L34.107 55.6711L32.5798 57.1983L28.9555 53.5739ZM8.47656 41.6545V51.4892L3.02214 46.0347L8.47656 41.6545ZM4.52055 78.825C4.48628 78.8561 4.45468 78.8892 4.42477 78.9231C3.23478 78.2928 2.42188 77.0419 2.42188 75.604V48.8596L19.1225 65.5601L4.52055 78.825ZM7.53566 79.3579L11.5347 75.7251H20.4233C21.0921 75.7251 21.6342 75.1829 21.6342 74.5142C21.6342 73.8455 21.0921 73.3032 20.4233 73.3032H14.2007L23.7059 64.6683C27.8643 60.8908 34.1358 60.8908 38.2942 64.6683L54.4643 79.3579H7.53566ZM59.5781 75.604C59.5781 77.0419 58.7652 78.2928 57.5752 78.9231C57.5453 78.889 57.5137 78.8561 57.4795 78.825L42.8776 65.5601L59.5781 48.8596V75.604Z" fill="#0284E2"/>
<path d="M53.2167 20.1822C52.7438 19.7095 51.977 19.7095 51.5042 20.1822L46.6125 25.0739C46.1396 25.5468 46.1396 26.3136 46.6125 26.7866C46.849 27.0229 47.1588 27.1413 47.4687 27.1413C47.7786 27.1413 48.0886 27.0229 48.325 26.7866L53.2167 21.8949C53.6896 21.422 53.6896 20.6552 53.2167 20.1822Z" fill="white"/>
<path d="M42.917 19.7798C42.2482 19.7798 41.7061 20.3221 41.7061 20.9907V23.4231C41.7061 24.0918 42.2482 24.6341 42.917 24.6341C43.5858 24.6341 44.1279 24.0918 44.1279 23.4231V20.9907C44.1279 20.3221 43.5858 19.7798 42.917 19.7798Z" fill="white"/>
<path d="M52.3956 29.167H49.8818C49.213 29.167 48.6709 29.7093 48.6709 30.378C48.6709 31.0466 49.213 31.5889 49.8818 31.5889H52.3956C53.0644 31.5889 53.6066 31.0466 53.6066 30.378C53.6066 29.7093 53.0644 29.167 52.3956 29.167Z" fill="white"/>
<path d="M26.2448 73.658C26.0184 73.4328 25.7071 73.3032 25.3887 73.3032C25.069 73.3032 24.7578 73.4327 24.5313 73.658C24.3061 73.8833 24.1777 74.1957 24.1777 74.5142C24.1777 74.8327 24.3061 75.1451 24.5313 75.3702C24.7578 75.5955 25.0702 75.7251 25.3887 75.7251C25.7071 75.7251 26.0184 75.5955 26.2448 75.3702C26.47 75.1451 26.5996 74.8327 26.5996 74.5142C26.5996 74.1957 26.47 73.8833 26.2448 73.658Z" fill="white"/>
</g>
<path d="M84 14.2032C83.4937 14.5801 83.2405 14.957 82.9873 15.0827C81.7215 15.5853 80.4557 16.0878 79.1899 16.5904C77.2911 17.2186 76.1519 18.4751 75.8987 20.4854C75.6456 22.1188 75.3924 23.7522 75.0127 25.3856C74.8861 25.8881 74.5063 26.642 74.1266 26.7677C73.3671 26.8933 73.3671 26.0138 73.2405 25.5112C72.7342 24.0035 72.2278 22.3701 71.8481 20.8623C71.2152 18.7264 69.8228 17.5956 67.5443 17.5956C66.6582 17.5956 65.8987 17.4699 65.0127 17.3443C64.5063 17.3443 64.2532 17.093 64 16.8417C64.2532 16.5904 64.3797 16.2135 64.6329 16.0878C65.8987 15.5853 67.2911 15.0827 68.557 14.7057C69.8228 14.3288 70.7089 13.4493 70.962 12.1928C71.4684 10.1825 71.8481 8.1722 72.3544 6.28753C72.6076 5.6593 72.3544 4.77979 73.2405 4.77979C74.1266 4.77979 74 5.53366 74.1266 6.03624C74.5063 7.79527 74.8861 9.42865 75.3924 11.1877C76.0253 13.4493 76.5316 13.8262 78.9367 13.8262C80.2025 13.8262 81.5949 13.7006 82.8608 13.7006C82.9873 13.7006 83.3671 13.9519 84 14.2032Z" fill="#434087"/>
<path d="M67 5.49147C66.7468 5.67993 66.6203 5.86841 66.4937 5.93123C65.8608 6.18252 65.2278 6.43381 64.5949 6.6851C63.6456 6.99921 63.0759 7.62744 62.9494 8.6326C62.8228 9.44929 62.6962 10.266 62.5063 11.0827C62.443 11.334 62.2532 11.7109 62.0633 11.7737C61.6835 11.8366 61.6835 11.3968 61.6203 11.1455C61.3671 10.3916 61.1139 9.57493 60.9241 8.82106C60.6076 7.75308 59.9114 7.18767 58.7722 7.18767C58.3291 7.18767 57.9494 7.12486 57.5063 7.06204C57.2532 7.06204 57.1266 6.93639 57 6.81075C57.1266 6.6851 57.1899 6.49662 57.3165 6.4338C57.9494 6.18252 58.6456 5.93122 59.2785 5.74275C59.9114 5.5543 60.3544 5.11454 60.481 4.48631C60.7342 3.48116 60.9241 2.476 61.1772 1.53365C61.3038 1.21954 61.1772 0.779785 61.6203 0.779785C62.0633 0.779785 62 1.15672 62.0633 1.40801C62.2532 2.28753 62.443 3.10422 62.6962 3.98374C63.0127 5.11454 63.2658 5.30301 64.4684 5.30301C65.1013 5.30301 65.7975 5.24018 66.4304 5.24018C66.4937 5.24018 66.6835 5.36583 67 5.49147Z" fill="#6663A9"/>
</g>
<defs>
<clipPath id="clip0_840_1445">
<rect width="84" height="81" fill="white" transform="translate(0 0.779785)"/>
</clipPath>
</defs>
</svg>
