<svg width="94" height="94" viewBox="0 0 94 94" fill="none" xmlns="http://www.w3.org/2000/svg">
<g clip-path="url(#clip0_840_1402)">
<path d="M20.9844 45.8344C20.303 45.8344 19.75 45.2814 19.75 44.6V40.1291C19.75 39.7415 19.9302 39.3786 20.2388 39.1465C21.4979 38.1936 22.2188 36.7617 22.2188 35.2187V31.5156C22.2188 28.7926 20.0043 26.5781 17.2812 26.5781C14.5582 26.5781 12.3438 28.7926 12.3438 31.5156V35.2187C12.3438 36.7617 13.0646 38.1936 14.3237 39.1465C14.6323 39.3786 14.8125 39.744 14.8125 40.1316V44.6025C14.8125 45.2838 14.2595 45.8368 13.5781 45.8368C12.8968 45.8368 12.3438 45.2814 12.3438 44.6V40.7117C10.7662 39.3021 9.875 37.332 9.875 35.2187V31.5156C9.875 27.4323 13.1979 24.1094 17.2812 24.1094C21.3646 24.1094 24.6875 27.4323 24.6875 31.5156V35.2187C24.6875 37.332 23.7963 39.2996 22.2188 40.7117V44.6C22.2188 45.2814 21.6658 45.8344 20.9844 45.8344Z" fill="white"/>
<path d="M18.5228 42.5016C17.9501 42.5016 17.4366 42.0991 17.3156 41.5165C17.1798 40.8475 17.6094 40.1957 18.2784 40.06C20.5595 39.5884 22.2186 37.5542 22.2186 35.2187C22.2186 34.5374 22.7715 33.9844 23.4529 33.9844C24.1343 33.9844 24.6873 34.5374 24.6873 35.2187C24.6873 38.7194 22.1988 41.7708 18.7722 42.4744C18.6882 42.4917 18.6068 42.5016 18.5228 42.5016Z" fill="white"/>
<path d="M25.6107 47.7699C25.4478 47.7699 25.2824 47.7378 25.1244 47.6686L20.4979 45.6813C19.8709 45.4122 19.582 44.6864 19.8511 44.0593C20.1177 43.4298 20.8436 43.1459 21.4706 43.4125L26.0971 45.3999C26.7241 45.669 27.013 46.3948 26.7439 47.0218C26.5439 47.4909 26.0872 47.7699 25.6107 47.7699Z" fill="white"/>
<path d="M9.875 62.713C9.70466 62.713 9.52938 62.6784 9.36397 62.6019L4.63878 60.4541C3.32047 59.8517 2.46875 58.5285 2.46875 57.0818V53.6601C2.46875 50.1989 4.51781 47.0883 7.68769 45.7354L13.0868 43.3926C13.7188 43.121 14.4397 43.4074 14.7113 44.032C14.9804 44.6566 14.694 45.3849 14.0694 45.6564L8.66531 48.0017C6.399 48.9719 4.9375 51.1914 4.9375 53.6601V57.0818C4.9375 57.5632 5.22141 58.0076 5.66084 58.2075L10.386 60.3553C11.0057 60.6368 11.2797 61.37 10.9983 61.9897C10.7909 62.4439 10.3416 62.713 9.875 62.713Z" fill="white"/>
<path d="M22.0682 33.7622C19.6093 33.7622 17.259 32.9154 15.2717 31.3132C14.7434 30.8861 14.6594 30.1109 15.0841 29.5801C15.5161 29.0493 16.2938 28.9679 16.8196 29.395C18.4045 30.6713 20.2857 31.3601 22.2138 31.2934C22.0953 28.6716 19.9277 26.5781 17.2812 26.5781C14.5582 26.5781 12.3438 28.7926 12.3438 31.5156V32.4291C12.3438 33.1104 11.7907 33.6634 11.1094 33.6634C10.428 33.6634 9.875 33.1129 9.875 32.4291V31.5156C9.875 27.4323 13.1979 24.1094 17.2812 24.1094C21.3646 24.1094 24.6875 27.4323 24.6875 31.5156V32.3797C24.6875 32.987 24.2456 33.503 23.6482 33.5992C23.0779 33.6906 22.5841 33.7622 22.0682 33.7622Z" fill="white"/>
<path d="M65.4219 45.8344C64.7405 45.8344 64.1875 45.2814 64.1875 44.6V40.1291C64.1875 39.7415 64.3677 39.3786 64.6763 39.1465C65.9354 38.1936 66.6562 36.7617 66.6562 35.2187V31.5156C66.6562 28.7926 64.4418 26.5781 61.7188 26.5781C58.9957 26.5781 56.7812 28.7926 56.7812 31.5156V35.2187C56.7812 36.7617 57.5021 38.1936 58.7612 39.1465C59.0698 39.3786 59.25 39.744 59.25 40.1316V44.6025C59.25 45.2838 58.697 45.8368 58.0156 45.8368C57.3343 45.8368 56.7812 45.2838 56.7812 44.6025V40.7142C55.2037 39.3045 54.3125 37.3345 54.3125 35.2212V31.5181C54.3125 27.4348 57.6354 24.1118 61.7188 24.1118C65.8021 24.1118 69.125 27.4348 69.125 31.5181V35.2212C69.125 37.3345 68.2338 39.3021 66.6562 40.7142V44.6025C66.6562 45.2814 66.1032 45.8344 65.4219 45.8344Z" fill="white"/>
<path d="M62.9603 42.5016C62.3876 42.5016 61.8741 42.0991 61.7531 41.5165C61.6173 40.8475 62.0469 40.1957 62.7159 40.06C64.997 39.5884 66.656 37.5542 66.656 35.2187C66.656 34.5374 67.2091 33.9844 67.8904 33.9844C68.5718 33.9844 69.1248 34.5374 69.1248 35.2187C69.1248 38.7194 66.6363 41.7708 63.2097 42.4744C63.1257 42.4917 63.0443 42.5016 62.9603 42.5016Z" fill="white"/>
<path d="M53.7519 47.6142C53.2754 47.6142 52.8187 47.3353 52.6187 46.8662C52.3496 46.2416 52.6385 45.5133 53.2656 45.2442L57.5291 43.4124C58.1512 43.1483 58.8795 43.4297 59.1486 44.0592C59.4177 44.6838 59.1288 45.4121 58.5018 45.6812L54.2382 47.513C54.0802 47.5821 53.9173 47.6142 53.7519 47.6142Z" fill="white"/>
<path d="M69.1249 62.713C68.6583 62.713 68.209 62.4439 68.0016 61.9897C67.7202 61.37 67.9942 60.6368 68.6139 60.3553L73.3391 58.2075C73.7785 58.0076 74.0624 57.5657 74.0624 57.0818V53.6601C74.0624 51.1914 72.6009 48.9719 70.342 48.0067L64.9305 45.6564C64.3059 45.3849 64.0195 44.659 64.2886 44.032C64.5602 43.4049 65.2761 43.1185 65.9131 43.3926L71.3172 45.7379C74.4821 47.0883 76.5311 50.1989 76.5311 53.6601V57.0818C76.5311 58.5285 75.6794 59.8517 74.3611 60.4541L69.6359 62.6019C69.4705 62.676 69.2952 62.713 69.1249 62.713Z" fill="white"/>
<path d="M42.7341 30.0739C39.2235 30.0739 35.5698 28.837 33.5553 27.025C33.0467 26.5682 33.0047 25.7881 33.4614 25.282C33.9182 24.7759 34.7057 24.734 35.2044 25.1907C37.6386 27.378 43.4697 28.521 46.81 26.7287C47.4099 26.4053 48.1604 26.63 48.4813 27.2323C48.8047 27.8347 48.5776 28.5803 47.9777 28.9037C46.4545 29.7159 44.6152 30.0739 42.7341 30.0739Z" fill="white"/>
<path d="M39.4828 52.4997C35.3872 52.4997 33.2517 49.3051 32.6938 47.614C32.479 46.9648 32.832 46.2686 33.4788 46.0538C34.1256 45.8415 34.8193 46.192 35.0341 46.8339C35.086 46.982 36.1796 50.0285 39.4828 50.0285C42.8132 50.0285 43.9858 46.8882 44.0377 46.7549C44.2673 46.1155 44.9832 45.7822 45.6127 46.0093C46.2521 46.2365 46.5904 46.9351 46.3657 47.577C46.2941 47.7794 44.5882 52.4997 39.4828 52.4997Z" fill="white"/>
<path d="M62.9531 62.3751C62.2718 62.3751 61.7188 61.8221 61.7188 61.1407V60.4519C61.7188 56.7908 59.4105 53.5172 55.9764 52.31L45.6793 48.6562C44.198 48.1403 43.2031 46.738 43.2031 45.1704V42.1338C43.2031 41.4524 43.7561 40.8994 44.4375 40.8994C45.1189 40.8994 45.6719 41.4524 45.6719 42.1338V45.1704C45.6719 45.6888 46.0052 46.1529 46.4989 46.3257L56.7985 49.982C61.2176 51.5348 64.1875 55.744 64.1875 60.4519V61.1432C64.1875 61.8246 63.6345 62.3751 62.9531 62.3751Z" fill="white"/>
<path d="M16.0469 62.3751C15.3655 62.3751 14.8125 61.8221 14.8125 61.1407V60.4741C14.8125 59.7039 14.894 58.9312 15.0544 58.1683C15.8494 54.4084 18.5996 51.2731 22.2237 49.9795L32.4986 46.3751C32.9948 46.2023 33.3281 45.7357 33.3281 45.2173V42.1313C33.3281 41.45 33.8811 40.897 34.5625 40.897C35.2439 40.897 35.7969 41.45 35.7969 42.1313V45.2173C35.7969 46.7825 34.802 48.1847 33.3158 48.7056L23.0483 52.3075C20.2265 53.3123 18.0885 55.7539 17.4689 58.6794C17.343 59.2719 17.2812 59.8767 17.2812 60.4741V61.1407C17.2812 61.8246 16.7282 62.3751 16.0469 62.3751Z" fill="white"/>
<path d="M39.5 45.0937C38.8186 45.0937 38.2656 44.5407 38.2656 43.8594C38.2656 43.178 38.8186 42.625 39.5 42.625C42.0626 42.625 46.9062 40.3044 46.9062 31.5156V27.8125C46.9062 23.7292 43.5833 20.4062 39.5 20.4062C35.4167 20.4062 32.0938 23.7292 32.0938 27.8125V31.5156C32.0938 35.7717 33.2318 39.028 35.3821 40.9314C35.8932 41.3832 35.9425 42.1633 35.4883 42.6744C35.0316 43.1879 34.2539 43.2298 33.7478 42.7805C31.8666 41.1166 29.625 37.8134 29.625 31.5156V27.8125C29.625 22.3664 34.0539 17.9375 39.5 17.9375C44.9461 17.9375 49.375 22.3664 49.375 27.8125V31.5156C49.375 42.2571 42.9167 45.0937 39.5 45.0937Z" fill="white"/>
<path d="M58.3071 84.5938C57.8529 84.5938 57.4184 84.342 57.2011 83.9075C56.8999 83.2952 57.1493 82.557 57.7615 82.2534L63.8667 79.2292C64.2099 79.0588 64.6197 79.0588 64.9604 79.2292L68.9499 81.2066L68.3006 76.8024C68.2463 76.4222 68.3697 76.0346 68.6413 75.7606L71.7593 72.5734L67.365 71.8254C66.9872 71.7612 66.6589 71.5217 66.4787 71.1811L64.4148 67.236L62.3485 71.1811C62.1682 71.5217 61.8399 71.7612 61.4622 71.8254L57.0703 72.5734L60.1858 75.7606C60.6623 76.2494 60.6524 77.0295 60.1661 77.506C59.6773 77.9849 58.8947 77.975 58.4207 77.4862L53.6585 72.6154C53.3375 72.287 53.224 71.8081 53.3671 71.3711C53.5103 70.9342 53.8806 70.6132 54.3349 70.5367L60.4475 69.4949L63.3236 64.0044C63.5384 63.597 63.9605 63.3428 64.4173 63.3428C64.8789 63.3428 65.2961 63.5995 65.5109 64.0044L68.3845 69.4949L74.4996 70.5367C74.9539 70.6132 75.3242 70.9366 75.4674 71.3711C75.6106 71.8056 75.497 72.287 75.1761 72.6154L70.8385 77.0468L71.742 83.1792C71.8062 83.6334 71.6161 84.0877 71.2458 84.3568C70.8755 84.6283 70.3818 84.6703 69.972 84.4629L64.4173 81.7103L58.8601 84.4629C58.6799 84.5543 58.4923 84.5938 58.3071 84.5938Z" fill="#0284E2"/>
<path d="M32.2817 91.3112C32.0249 91.3112 31.7706 91.2322 31.5558 91.0767C31.1855 90.8076 30.993 90.3534 31.0596 89.8966L32.1409 82.5323L26.9368 77.2097C26.6159 76.8814 26.5023 76.4024 26.6455 75.9655C26.7887 75.5285 27.159 75.2051 27.6132 75.131L34.9553 73.8818L38.4066 67.2878C38.8362 66.4731 40.1668 66.4731 40.5964 67.2878L44.0477 73.8818L51.3898 75.131C51.844 75.2076 52.2143 75.531 52.3575 75.9655C52.5007 76.4 52.3871 76.8814 52.0662 77.2097L46.8596 82.5323L47.9434 89.8966C48.0076 90.3509 47.8175 90.8051 47.4472 91.0742C47.0769 91.3483 46.5831 91.3853 46.1733 91.1804L39.5003 87.8747L32.8297 91.1804C32.6569 91.2668 32.4693 91.3112 32.2817 91.3112ZM30.3486 77.1678L34.3332 81.2437C34.6023 81.5202 34.7282 81.9053 34.6739 82.2855L33.8444 87.9216L38.9522 85.3912C39.2954 85.2183 39.7052 85.2183 40.0459 85.3912L45.1512 87.9216L44.3217 82.2855C44.2674 81.9053 44.3909 81.5177 44.6624 81.2437L48.6495 77.1678L43.0281 76.2099C42.6504 76.1457 42.3221 75.9062 42.1418 75.5655L39.5003 70.5169L36.8587 75.5655C36.6785 75.9062 36.3501 76.1457 35.9724 76.2099L30.3486 77.1678Z" fill="#0284E2"/>
<path d="M20.8931 84.5937C20.708 84.5937 20.5228 84.5517 20.345 84.4653L14.7904 81.7126L9.2332 84.4678C8.82586 84.6702 8.33458 84.6307 7.95933 84.3591C7.58901 84.0901 7.39645 83.6358 7.46311 83.1816L8.36667 77.0492L4.02908 72.6178C3.70814 72.2894 3.59458 71.8105 3.73776 71.3735C3.88095 70.9366 4.25126 70.6132 4.70551 70.5391L10.8206 69.4973L13.6967 64.0068C13.9115 63.5994 14.3336 63.3452 14.7904 63.3452C15.252 63.3452 15.6692 63.6019 15.884 64.0068L18.7576 69.4973L24.8703 70.5391C25.3245 70.6156 25.6948 70.939 25.838 71.3735C25.9812 71.808 25.8676 72.2894 25.5467 72.6178L20.7845 77.4861C20.313 77.975 19.5304 77.9848 19.0391 77.5059C18.5527 77.0294 18.5429 76.2493 19.0193 75.7605L22.1349 72.5733L17.743 71.8253C17.3628 71.7611 17.0369 71.5217 16.8567 71.181L14.7928 67.2359L12.7265 71.181C12.5463 71.5217 12.2179 71.7611 11.8402 71.8253L7.44583 72.5733L10.5639 75.7605C10.833 76.037 10.9589 76.4221 10.9045 76.8023L10.2553 81.2066L14.2472 79.2291C14.5904 79.0587 15.0002 79.0587 15.3409 79.2291L21.4436 82.2533C22.0559 82.557 22.3052 83.2951 22.004 83.9074C21.7819 84.3419 21.3449 84.5937 20.8931 84.5937Z" fill="#0284E2"/>
<path d="M94 14.2032C93.4937 14.5801 93.2405 14.957 92.9873 15.0827C91.7215 15.5853 90.4557 16.0878 89.1899 16.5904C87.2911 17.2186 86.1519 18.4751 85.8987 20.4854C85.6456 22.1188 85.3924 23.7522 85.0127 25.3856C84.8861 25.8881 84.5063 26.642 84.1266 26.7677C83.3671 26.8933 83.3671 26.0138 83.2405 25.5112C82.7342 24.0035 82.2278 22.3701 81.8481 20.8623C81.2152 18.7264 79.8228 17.5956 77.5443 17.5956C76.6582 17.5956 75.8987 17.4699 75.0127 17.3443C74.5063 17.3443 74.2532 17.093 74 16.8417C74.2532 16.5904 74.3797 16.2135 74.6329 16.0878C75.8987 15.5853 77.2911 15.0827 78.557 14.7057C79.8228 14.3288 80.7089 13.4493 80.962 12.1928C81.4684 10.1825 81.8481 8.1722 82.3544 6.28753C82.6076 5.6593 82.3544 4.77979 83.2405 4.77979C84.1266 4.77979 84 5.53366 84.1266 6.03624C84.5063 7.79527 84.8861 9.42865 85.3924 11.1877C86.0253 13.4493 86.5316 13.8262 88.9367 13.8262C90.2025 13.8262 91.5949 13.7006 92.8608 13.7006C92.9873 13.7006 93.3671 13.9519 94 14.2032Z" fill="#434087"/>
<path d="M77 5.49147C76.7468 5.67993 76.6203 5.86841 76.4937 5.93123C75.8608 6.18252 75.2278 6.43381 74.5949 6.6851C73.6456 6.99921 73.0759 7.62744 72.9494 8.6326C72.8228 9.44929 72.6962 10.266 72.5063 11.0827C72.443 11.334 72.2532 11.7109 72.0633 11.7737C71.6835 11.8366 71.6835 11.3968 71.6203 11.1455C71.3671 10.3916 71.1139 9.57493 70.9241 8.82106C70.6076 7.75308 69.9114 7.18767 68.7722 7.18767C68.3291 7.18767 67.9494 7.12486 67.5063 7.06204C67.2532 7.06204 67.1266 6.93639 67 6.81075C67.1266 6.6851 67.1899 6.49662 67.3165 6.4338C67.9494 6.18252 68.6456 5.93122 69.2785 5.74275C69.9114 5.5543 70.3544 5.11454 70.481 4.48631C70.7342 3.48116 70.9241 2.476 71.1772 1.53365C71.3038 1.21954 71.1772 0.779785 71.6203 0.779785C72.0633 0.779785 72 1.15672 72.0633 1.40801C72.2532 2.28753 72.443 3.10422 72.6962 3.98374C73.0127 5.11454 73.2658 5.30301 74.4684 5.30301C75.1013 5.30301 75.7975 5.24018 76.4304 5.24018C76.4937 5.24018 76.6835 5.36583 77 5.49147Z" fill="#6663A9"/>
</g>
<defs>
<clipPath id="clip0_840_1402">
<rect width="94" height="93" fill="white" transform="translate(0 0.779785)"/>
</clipPath>
</defs>
</svg>
