<svg width="49" height="38" viewBox="0 0 49 38" fill="none" xmlns="http://www.w3.org/2000/svg">
<path d="M16.6498 32.4238C16.3994 32.4373 16.1514 32.3661 15.9431 32.2211C15.7348 32.0761 15.5777 31.8651 15.4955 31.62L14.0649 27.3556C13.4488 25.5 12.3828 23.8369 10.9688 22.5255C9.55485 21.214 7.84023 20.2978 5.9888 19.8647L1.7325 18.8543C1.48808 18.7961 1.26837 18.6573 1.10658 18.4589C0.944802 18.2605 0.849742 18.0134 0.835777 17.7548C0.821813 17.4962 0.889704 17.2402 1.02918 17.0256C1.16866 16.811 1.37215 16.6493 1.60889 16.5651L5.73162 15.1023C7.52563 14.4722 9.13163 13.3768 10.3961 11.9207C11.6606 10.4645 12.5413 8.69634 12.9541 6.78513L13.9171 2.39146C13.9726 2.13914 14.1061 1.91265 14.2976 1.7462C14.489 1.57976 14.7279 1.48242 14.9782 1.46891C15.2284 1.4554 15.4764 1.52644 15.6847 1.6713C15.8929 1.81615 16.0501 2.02695 16.1324 2.27182L17.563 6.53624C18.1792 8.39188 19.2452 10.0549 20.6591 11.3664C22.0731 12.6779 23.7877 13.594 25.6391 14.0272L29.8954 15.0376C30.1398 15.0958 30.3595 15.2346 30.5213 15.433C30.6831 15.6313 30.7782 15.8785 30.7921 16.1371C30.8061 16.3957 30.7382 16.6516 30.5987 16.8663C30.4593 17.0809 30.2558 17.2425 30.019 17.3267L25.8963 18.7896C24.1023 19.4197 22.4963 20.5151 21.2318 21.9712C19.9673 23.4274 19.0866 25.1955 18.6739 27.1067L17.7108 31.5004C17.6555 31.7529 17.522 31.9796 17.3306 32.1462C17.1391 32.3128 16.9002 32.4102 16.6498 32.4238ZM6.1813 17.4661L6.49353 17.5416C8.72791 18.0645 10.7972 19.1702 12.5036 20.753C14.21 22.3358 15.4966 24.3428 16.2404 26.5822L16.3466 26.8949L16.4186 26.5726C16.9168 24.2661 17.9798 22.1322 19.5058 20.3748C21.0319 18.6175 22.97 17.2954 25.1351 16.5349L25.4374 16.4263L25.1252 16.3508C22.8908 15.8279 20.8215 14.7222 19.1151 13.1394C17.4087 11.5566 16.1221 9.54961 15.3784 7.31016L15.2765 6.99405L15.2046 7.31636C14.7063 9.62288 13.6434 11.7568 12.1173 13.5141C10.5913 15.2715 8.65309 16.5935 6.48802 17.354L6.1813 17.4661Z" fill="#27272F" fill-opacity="0.2"/>
<path d="M40.4551 36.6983C40.313 36.706 40.1721 36.6656 40.0538 36.5832C39.9355 36.5009 39.8463 36.381 39.7996 36.2419L38.9872 33.8202C38.6373 32.7664 38.032 31.822 37.229 31.0772C36.4261 30.3324 35.4523 29.8122 34.4009 29.5662L31.9839 28.9924C31.8451 28.9594 31.7203 28.8805 31.6284 28.7679C31.5365 28.6552 31.4826 28.5149 31.4746 28.368C31.4667 28.2212 31.5053 28.0758 31.5845 27.9539C31.6637 27.8321 31.7792 27.7403 31.9137 27.6925L34.2549 26.8617C35.2737 26.5039 36.1857 25.8818 36.9038 25.0549C37.6219 24.228 38.122 23.2239 38.3564 22.1386L38.9033 19.6435C38.9348 19.5002 39.0106 19.3716 39.1194 19.277C39.2281 19.1825 39.3637 19.1272 39.5059 19.1196C39.648 19.1119 39.7888 19.1522 39.9071 19.2345C40.0253 19.3168 40.1146 19.4365 40.1613 19.5755L40.9737 21.9972C41.3237 23.051 41.929 23.9954 42.732 24.7402C43.5349 25.485 44.5086 26.0052 45.56 26.2512L47.9771 26.825C48.1159 26.8581 48.2407 26.9369 48.3326 27.0495C48.4244 27.1622 48.4784 27.3025 48.4863 27.4494C48.4943 27.5962 48.4557 27.7416 48.3765 27.8635C48.2973 27.9853 48.1817 28.0771 48.0473 28.125L45.7061 28.9557C44.6873 29.3135 43.7753 29.9356 43.0572 30.7625C42.3391 31.5894 41.839 32.5935 41.6046 33.6789L41.0577 36.1739C41.0263 36.3173 40.9505 36.446 40.8417 36.5407C40.733 36.6353 40.5973 36.6906 40.4551 36.6983ZM34.5103 28.2041L34.6876 28.247C35.9564 28.5439 37.1315 29.1718 38.1006 30.0706C39.0696 30.9695 39.8003 32.1092 40.2226 33.381L40.283 33.5585L40.3238 33.3755C40.6068 32.0657 41.2104 30.8539 42.077 29.8559C42.9437 28.8579 44.0443 28.1072 45.2738 27.6753L45.4455 27.6136L45.2682 27.5707C43.9993 27.2738 42.8242 26.6459 41.8551 25.747C40.8861 24.8482 40.1555 23.7085 39.7331 22.4367L39.6753 22.2572L39.6344 22.4402C39.3515 23.7501 38.7478 24.9619 37.8812 25.9598C37.0146 26.9578 35.914 27.7086 34.6845 28.1405L34.5103 28.2041Z" fill="#27272F" fill-opacity="0.2"/>
</svg>
