<svg width="90" height="90" viewBox="0 0 90 90" fill="none" xmlns="http://www.w3.org/2000/svg">
<path d="M7.75119 0.340149C3.98799 1.32474 1.08646 4.34883 0.242381 8.11136C-0.00380899 9.25418 -0.021394 11.9794 0.013776 33.781L0.0665311 58.1671L0.435817 58.6594C1.71952 60.3824 3.8649 60.3824 5.1486 58.6594C5.51789 58.1671 5.51789 58.1319 5.57064 38.4753L5.60581 18.8012H44.9963H84.3867L84.4219 38.4753C84.4746 58.1319 84.4746 58.1671 84.8439 58.6594C86.1276 60.3824 88.273 60.3824 89.5567 58.6594L89.926 58.1671L89.9787 33.781C90.0315 6.63448 90.0843 8.09378 88.8357 5.57956C88.0268 3.99719 86.1452 2.0456 84.6153 1.25441C84.0174 0.937935 82.9272 0.53355 82.171 0.340149C80.8345 -0.0114899 80.1136 -0.0114899 44.9259 0.00609207C10.1603 0.00609207 8.99972 0.023674 7.75119 0.340149ZM81.661 6.05428C82.5579 6.49382 83.5075 7.46083 83.9471 8.33992C84.2109 8.88496 84.2988 9.5355 84.3515 11.1003L84.4219 13.175H45.0138H5.60581V11.4519C5.60581 10.5201 5.69374 9.43 5.79925 9.06078C6.2037 7.60149 7.54017 6.23009 8.96455 5.82571C9.35142 5.70264 22.1533 5.64989 45.26 5.66747C80.3773 5.70264 80.9752 5.70264 81.661 6.05428Z" fill="#F9F9F9"/>
<path d="M20.6765 37.6837C20.3073 37.8244 19.85 38.0705 19.639 38.2639C18.7949 39.0375 18.7949 38.9496 18.7949 48.69C18.7949 58.8172 18.7774 58.659 19.9028 59.4501C20.7293 60.0479 22.224 60.1007 22.9978 59.5556C24.1935 58.7469 24.3166 58.3073 24.4221 54.6679L24.5101 51.4152L26.4972 55.0195C27.605 57.0063 28.6777 58.8172 28.8712 59.0282C30.1373 60.3996 32.1244 60.2237 33.285 58.659C33.6543 58.1667 33.6543 57.9733 33.707 48.9362C33.7422 40.0397 33.7422 39.7056 33.4081 39.0375C32.4057 37.0859 29.5921 37.0332 28.5195 38.9496C28.1502 39.6002 28.115 39.8463 28.115 42.9759V46.3164L26.0751 42.6242C23.877 38.6683 23.2967 37.8771 22.3119 37.6134C21.5382 37.4024 21.503 37.4024 20.6765 37.6837Z" fill="#F9F9F9"/>
<path d="M42.6224 37.6842C40.0374 38.3171 38.191 40.2336 37.6282 42.8533C37.3821 44.0313 37.3645 53.209 37.6107 54.4925C38.0151 56.6375 39.3692 58.4308 41.2859 59.3803C42.2355 59.8374 42.3762 59.855 44.9964 59.855C47.6341 59.855 47.7572 59.8374 48.7244 59.3627C50.6236 58.4308 51.9776 56.6199 52.3821 54.5101C52.6283 53.209 52.6107 44.0313 52.3645 42.8533C51.7842 40.1632 49.8147 38.1941 47.1417 37.6314C45.946 37.3853 43.7478 37.4029 42.6224 37.6842ZM46.579 43.4159C46.9131 43.7499 46.9307 43.9961 46.9307 48.6553C46.9307 54.598 47.0186 54.3167 44.9964 54.3167C42.9741 54.3167 43.062 54.598 43.062 48.6553C43.062 42.8357 42.9741 43.0642 44.9964 43.0642C45.9987 43.0642 46.2977 43.1346 46.579 43.4159Z" fill="#F9F9F9"/>
<path d="M58.1318 37.6841C57.2702 38.0006 57.0064 38.2467 56.5668 39.0907C55.9337 40.3214 56.3206 41.6928 57.5515 42.607C57.9208 42.8883 58.3956 42.9938 59.4683 43.0642L60.9103 43.1521L60.9982 50.7123C61.0861 58.1846 61.0861 58.2725 61.473 58.8176C62.6336 60.4351 65.1483 60.2945 66.1682 58.5363C66.5199 57.9385 66.5375 57.622 66.5902 50.4837L66.643 43.0642H67.874C70.0369 43.0642 71.0393 42.2554 71.1623 40.4445C71.2503 39.2137 70.7755 38.4225 69.6149 37.8248C68.8587 37.4555 68.6829 37.438 63.8118 37.438C60.0838 37.4555 58.6242 37.5083 58.1318 37.6841Z" fill="#F9F9F9"/>
<path d="M4.81436 67.7491C2.84484 68.3821 1.47321 69.5776 0.611542 71.371L0.0664062 72.5138V80.3729C0.0664062 88.0211 0.0839913 88.2321 0.435692 88.7068C1.12151 89.6386 1.68423 89.9199 2.79208 89.9199C3.89994 89.9199 4.46266 89.6386 5.14848 88.7068C5.48259 88.2672 5.51776 87.9332 5.57052 85.331L5.62327 82.4476H9.24579C12.2001 82.4476 12.9562 82.3949 13.4486 82.1663C14.3279 81.7443 14.8027 80.9707 14.8906 79.8279C14.9785 78.5972 14.5037 77.806 13.3431 77.2082C12.6221 76.839 12.3408 76.8214 9.08752 76.8214H5.60569V75.2742C5.60569 73.0764 5.42984 73.1644 9.68541 73.094C12.8683 73.0413 13.1848 73.0061 13.642 72.6721C15.3654 71.3886 15.3654 69.2436 13.642 67.9601C13.1672 67.6085 12.8859 67.5909 9.33371 67.5557C6.59045 67.5206 5.32433 67.5733 4.81436 67.7491Z" fill="#F9F9F9"/>
<path d="M23.2791 67.8545C21.3096 68.505 19.639 70.2104 19.0587 72.1269C18.6718 73.4279 18.6718 84.0826 19.0587 85.3836C19.6566 87.388 21.3448 89.0407 23.4198 89.6736C24.4397 89.9901 24.9497 90.0429 26.673 89.9725C28.537 89.9022 28.8536 89.8495 29.9087 89.3572C31.3506 88.6715 32.4057 87.6341 33.1091 86.1397L33.6543 84.9968V78.7553V72.5137L33.1091 71.3709C32.4057 69.894 31.3506 68.8391 29.9087 68.1534C28.8008 67.6259 28.5898 67.5907 26.5323 67.5556C24.7387 67.5204 24.1408 67.5732 23.2791 67.8545ZM27.7985 73.4279C28.0974 73.6917 28.115 74.0961 28.115 78.7201C28.115 84.6804 28.2205 84.3815 26.251 84.3815C25.319 84.3815 24.8969 84.3111 24.7035 84.1002C24.4573 83.8716 24.4221 83.1332 24.4221 78.7553C24.4221 74.3774 24.4573 73.6389 24.7035 73.4104C25.0904 73.006 27.3413 73.0236 27.7985 73.4279Z" fill="#F9F9F9"/>
<path d="M38.9478 67.8898C38.561 68.1183 38.0862 68.5755 37.8927 68.9095C37.541 69.5073 37.5234 69.771 37.5234 77.173C37.5234 84.7684 37.5234 84.8212 37.9279 85.8233C38.5082 87.2475 39.8271 88.6364 41.269 89.3397C42.4297 89.9199 42.4648 89.9199 44.9971 89.9199C47.5293 89.9199 47.5645 89.9199 48.7251 89.3397C50.1671 88.6364 51.4859 87.2475 52.0663 85.8233C52.4707 84.8212 52.4707 84.7684 52.4707 77.173V69.5249L52.0487 68.8568C51.5035 67.9601 50.4484 67.4326 49.4285 67.5557C48.5492 67.6436 47.8986 68.0656 47.3359 68.9095C46.9314 69.4897 46.9314 69.5249 46.9314 76.5401C46.9314 82.641 46.8963 83.6608 46.6501 83.9948C46.4215 84.3465 46.228 84.3816 44.9971 84.3816C43.7661 84.3816 43.5727 84.3465 43.3441 83.9948C43.0979 83.6608 43.0627 82.641 43.0627 76.5401C43.0627 69.5249 43.0627 69.4897 42.6758 68.9095C41.7438 67.5557 40.2315 67.1513 38.9478 67.8898Z" fill="#F9F9F9"/>
<path d="M57.9216 67.7488C57.2709 68.0301 56.6906 68.663 56.4444 69.3136C56.3213 69.6476 56.251 72.8475 56.251 78.7726C56.251 88.724 56.2334 88.513 57.4116 89.4097C57.9567 89.8317 58.2381 89.9196 59.0822 89.9196C60.1725 89.9196 60.7352 89.6207 61.421 88.7064C61.7551 88.2669 61.7903 87.9152 61.8782 84.7681L61.9661 81.3044L64.1643 85.2604C66.0986 88.7416 66.4503 89.2515 67.0658 89.6207C68.3671 90.3591 69.8794 89.9547 70.8114 88.6009L71.1983 88.0207V78.7551V69.4894L70.8114 68.9092C69.8794 67.5554 68.3671 67.151 67.0834 67.8894C65.7997 68.6279 65.6766 69.0674 65.5711 72.8124L65.4831 76.1002L63.4081 72.3552C62.2651 70.2982 61.1572 68.4521 60.9462 68.2411C60.1549 67.5026 58.9239 67.3092 57.9216 67.7488Z" fill="#F9F9F9"/>
<path d="M76.8249 67.6964C76.5787 67.8019 76.1919 68.048 75.9809 68.259C75.0488 69.1205 75.0664 68.9095 75.0664 78.8081V88.0211L75.4709 88.6013C75.6819 88.9178 76.0864 89.3573 76.3501 89.5507C76.8249 89.9023 77.0711 89.9199 80.9222 89.9199H85.002L86.145 89.3749C87.6046 88.6892 88.6948 87.5991 89.3806 86.1398L89.9258 84.997V78.7554V72.5138L89.3806 71.371C88.6948 69.9117 87.6046 68.8216 86.145 68.1359L85.002 67.5909L81.1333 67.5557C78.7769 67.5206 77.0887 67.5909 76.8249 67.6964ZM84.07 73.4281C84.3689 73.6918 84.3865 74.0962 84.3865 78.7202C84.3865 84.7684 84.5272 84.3816 82.2411 84.3816H80.6936V78.7554V73.1292H82.2235C83.3841 73.1292 83.8238 73.1995 84.07 73.4281Z" fill="#F9F9F9"/>
</svg>
