<svg width="276" height="102" viewBox="0 0 276 102" fill="none" xmlns="http://www.w3.org/2000/svg">
<g clip-path="url(#clip0_990_1468)">
<g clip-path="url(#clip1_990_1468)">
<path d="M16.9452 53.3138C83.4212 44.8724 151.371 43.7381 220.795 49.911C224.115 50.2569 226.412 52.7829 225.911 55.5422C223.721 68.4457 222.311 80.7109 221.683 92.338C221.637 94.7191 219.068 96.8349 215.964 97.0601C151.367 102.724 88.0179 103.517 25.915 99.4414C22.9023 99.2402 20.1171 96.9958 19.6851 94.4376C17.4189 82.3171 14.9178 70.3468 12.1818 58.5267C11.6134 56.049 13.7393 53.7241 16.9339 53.3138" fill="#FFC224"/>
</g>
<path d="M41.4098 79.72H50.3698V85H34.5698V56.92H41.4098V79.72ZM74.6723 73.48C74.6723 74.12 74.6323 74.7867 74.5523 75.48H59.0723C59.179 76.8667 59.619 77.9333 60.3923 78.68C61.1923 79.4 62.1657 79.76 63.3123 79.76C65.019 79.76 66.2057 79.04 66.8723 77.6H74.1523C73.779 79.0667 73.099 80.3867 72.1123 81.56C71.1523 82.7333 69.939 83.6533 68.4723 84.32C67.0057 84.9867 65.3657 85.32 63.5523 85.32C61.3657 85.32 59.419 84.8533 57.7123 83.92C56.0057 82.9867 54.6723 81.6533 53.7123 79.92C52.7523 78.1867 52.2723 76.16 52.2723 73.84C52.2723 71.52 52.739 69.4933 53.6723 67.76C54.6323 66.0267 55.9657 64.6933 57.6723 63.76C59.379 62.8267 61.339 62.36 63.5523 62.36C65.7123 62.36 67.6323 62.8133 69.3123 63.72C70.9923 64.6267 72.299 65.92 73.2323 67.6C74.1923 69.28 74.6723 71.24 74.6723 73.48ZM67.6723 71.68C67.6723 70.5067 67.2723 69.5733 66.4723 68.88C65.6723 68.1867 64.6723 67.84 63.4723 67.84C62.3257 67.84 61.3523 68.1733 60.5523 68.84C59.779 69.5067 59.299 70.4533 59.1123 71.68H67.6723ZM76.9208 73.8C76.9208 71.5067 77.3474 69.4933 78.2008 67.76C79.0808 66.0267 80.2674 64.6933 81.7608 63.76C83.2541 62.8267 84.9208 62.36 86.7608 62.36C88.3341 62.36 89.7074 62.68 90.8808 63.32C92.0808 63.96 93.0008 64.8 93.6408 65.84V62.68H100.481V85H93.6408V81.84C92.9741 82.88 92.0408 83.72 90.8408 84.36C89.6674 85 88.2941 85.32 86.7208 85.32C84.9074 85.32 83.2541 84.8533 81.7608 83.92C80.2674 82.96 79.0808 81.6133 78.2008 79.88C77.3474 78.12 76.9208 76.0933 76.9208 73.8ZM93.6408 73.84C93.6408 72.1333 93.1608 70.7867 92.2008 69.8C91.2674 68.8133 90.1208 68.32 88.7608 68.32C87.4008 68.32 86.2408 68.8133 85.2808 69.8C84.3474 70.76 83.8808 72.0933 83.8808 73.8C83.8808 75.5067 84.3474 76.8667 85.2808 77.88C86.2408 78.8667 87.4008 79.36 88.7608 79.36C90.1208 79.36 91.2674 78.8667 92.2008 77.88C93.1608 76.8933 93.6408 75.5467 93.6408 73.84ZM112.269 66.4C113.069 65.1733 114.069 64.2133 115.269 63.52C116.469 62.8 117.803 62.44 119.269 62.44V69.68H117.389C115.683 69.68 114.403 70.0533 113.549 70.8C112.696 71.52 112.269 72.8 112.269 74.64V85H105.429V62.68H112.269V66.4ZM136.139 62.44C138.752 62.44 140.832 63.2933 142.379 65C143.952 66.68 144.739 69 144.739 71.96V85H137.939V72.88C137.939 71.3867 137.552 70.2267 136.779 69.4C136.005 68.5733 134.965 68.16 133.659 68.16C132.352 68.16 131.312 68.5733 130.539 69.4C129.765 70.2267 129.379 71.3867 129.379 72.88V85H122.539V62.68H129.379V65.64C130.072 64.6533 131.005 63.88 132.179 63.32C133.352 62.7333 134.672 62.44 136.139 62.44ZM152.932 60.36C151.732 60.36 150.745 60.0133 149.972 59.32C149.225 58.6 148.852 57.72 148.852 56.68C148.852 55.6133 149.225 54.7333 149.972 54.04C150.745 53.32 151.732 52.96 152.932 52.96C154.105 52.96 155.065 53.32 155.812 54.04C156.585 54.7333 156.972 55.6133 156.972 56.68C156.972 57.72 156.585 58.6 155.812 59.32C155.065 60.0133 154.105 60.36 152.932 60.36ZM156.332 62.68V85H149.492V62.68H156.332ZM174.889 62.44C177.502 62.44 179.582 63.2933 181.129 65C182.702 66.68 183.489 69 183.489 71.96V85H176.689V72.88C176.689 71.3867 176.302 70.2267 175.529 69.4C174.755 68.5733 173.715 68.16 172.409 68.16C171.102 68.16 170.062 68.5733 169.289 69.4C168.515 70.2267 168.129 71.3867 168.129 72.88V85H161.289V62.68H168.129V65.64C168.822 64.6533 169.755 63.88 170.929 63.32C172.102 62.7333 173.422 62.44 174.889 62.44ZM196.722 62.36C198.295 62.36 199.668 62.68 200.842 63.32C202.042 63.96 202.962 64.8 203.602 65.84V62.68H210.442V84.96C210.442 87.0133 210.028 88.8667 209.202 90.52C208.402 92.2 207.162 93.5333 205.482 94.52C203.828 95.5067 201.762 96 199.282 96C195.975 96 193.295 95.2133 191.242 93.64C189.188 92.0933 188.015 89.9867 187.722 87.32H194.482C194.695 88.1733 195.202 88.84 196.002 89.32C196.802 89.8267 197.788 90.08 198.962 90.08C200.375 90.08 201.495 89.6667 202.322 88.84C203.175 88.04 203.602 86.7467 203.602 84.96V81.8C202.935 82.84 202.015 83.6933 200.842 84.36C199.668 85 198.295 85.32 196.722 85.32C194.882 85.32 193.215 84.8533 191.722 83.92C190.228 82.96 189.042 81.6133 188.162 79.88C187.308 78.12 186.882 76.0933 186.882 73.8C186.882 71.5067 187.308 69.4933 188.162 67.76C189.042 66.0267 190.228 64.6933 191.722 63.76C193.215 62.8267 194.882 62.36 196.722 62.36ZM203.602 73.84C203.602 72.1333 203.122 70.7867 202.162 69.8C201.228 68.8133 200.082 68.32 198.722 68.32C197.362 68.32 196.202 68.8133 195.242 69.8C194.308 70.76 193.842 72.0933 193.842 73.8C193.842 75.5067 194.308 76.8667 195.242 77.88C196.202 78.8667 197.362 79.36 198.722 79.36C200.082 79.36 201.228 78.8667 202.162 77.88C203.122 76.8933 203.602 75.5467 203.602 73.84Z" fill="white"/>
<path d="M225.926 35.4604C227.33 28.8453 230.079 13.3798 229.838 4.43848" stroke="white" stroke-width="3.07158" stroke-linejoin="round" stroke-dasharray="32 34"/>
<path d="M242.429 45.5191C248.528 42.598 262.461 35.3448 269.4 29.7009" stroke="white" stroke-width="3.07158" stroke-linejoin="round" stroke-dasharray="32 34"/>
<path d="M235.084 37.2553C238.136 33.986 244.839 26.2239 247.236 21.3291" stroke="white" stroke-width="3.07158" stroke-linejoin="round" stroke-dasharray="21 23"/>
</g>
<defs>
<clipPath id="clip0_990_1468">
<rect width="276" height="102" fill="white"/>
</clipPath>
<clipPath id="clip1_990_1468">
<rect width="213.89" height="56" fill="white" transform="translate(12.0898 46)"/>
</clipPath>
</defs>
</svg>
